<svg width="1800" height="1200" viewBox="0 0 1800 1200" fill="none" xmlns="http://www.w3.org/2000/svg">
<path d="M192.471 763.393C204.255 763.393 215.043 766.009 224.836 771.235C234.794 776.466 242.637 783.602 248.363 792.645C254.089 801.608 256.952 811.444 256.952 822.15C256.952 832.775 254.047 842.607 248.238 851.654C242.594 860.617 234.794 867.711 224.835 872.939C215.042 878.086 204.253 880.657 192.47 880.657H70.726V933.936H24.169V763.393H192.471ZM70.726 842.937H188.113C194.835 842.691 200.313 840.741 204.545 837.087C208.859 833.104 211.018 828.124 211.018 822.149C211.018 815.924 208.859 810.945 204.545 807.211C200.313 803.228 194.835 801.277 188.113 801.361H70.726V842.937Z" fill="#252525"/>
<path d="M516.251 763.393V801.362H347.825C341.684 801.278 336.497 803.228 332.265 807.212C328.033 810.865 325.916 815.551 325.916 821.28V876.052C325.916 881.53 328.033 886.256 332.265 890.24C336.497 893.977 341.684 895.886 347.825 895.97H475.669V869.452H417.536V833.475H522.226V933.935H334.132C318.945 933.935 305.999 929.078 295.294 919.372C284.67 909.657 279.359 897.918 279.359 884.141V813.185C279.359 799.412 284.67 787.665 295.294 777.958C305.999 768.245 318.945 763.392 334.132 763.392H516.251V763.393Z" fill="#252525"/>
<path d="M853.476 763.393C868.746 763.393 881.692 768.247 892.315 777.959C903.019 787.666 908.328 799.412 908.247 813.186V824.141H861.693V821.28C861.693 815.551 859.576 810.823 855.344 807.086C851.194 803.022 846.008 801.111 839.783 801.362H737.582C731.607 801.278 726.419 803.228 722.022 807.212C717.79 810.865 715.674 815.551 715.674 821.28V876.052C715.674 881.53 717.83 886.256 722.147 890.24C726.462 893.977 731.607 895.886 737.583 895.97H839.784C846.008 895.717 851.195 893.771 855.345 890.117C859.577 886.134 861.694 881.445 861.694 876.052V873.436H908.248V884.142C908.329 897.919 903.02 909.659 892.316 919.373C881.693 929.078 868.747 933.936 853.477 933.936H723.889C708.702 933.936 695.756 929.079 685.05 919.373C674.427 909.658 669.117 897.919 669.117 884.142V813.186C669.117 799.413 674.469 787.666 685.175 777.959C695.881 768.246 708.785 763.393 723.889 763.393H853.476V763.393Z" fill="#252525"/>
<path d="M930.776 933.936V763.393H977.333V895.97H1132.56V933.936H930.776Z" fill="#252525"/>
<path d="M1201.53 763.393V933.936H1154.97V763.393H1201.53Z" fill="#252525"/>
<path d="M1495.93 763.393V933.936H1449.37V825.884L1379.92 918.622H1339.95L1270.49 825.884V933.936H1223.94V763.393H1272.23L1359.87 882.897L1447.51 763.393H1495.93Z" fill="#252525"/>
<path d="M1665.48 763.393L1773.78 933.936H1723.61L1700.08 896.59H1584.69L1560.91 933.936H1510.87L1619.17 763.393H1665.48ZM1607.59 860.489H1677.06L1642.45 805.718L1607.59 860.489Z" fill="#252525"/>
<path d="M289.396 1013.79C290.33 1013.79 290.796 1014.35 290.796 1015.28V1051.7L304.148 1034.7C304.614 1034.14 305.268 1033.77 306.107 1033.77H318.712C320.392 1033.77 320.392 1034.52 319.551 1035.54L304.52 1054.31L323.659 1083.53C324.313 1084.75 324.594 1086.05 322.073 1086.05H310.308C309.375 1086.05 308.628 1085.68 308.255 1085.03L290.795 1057.49V1084.56C290.795 1085.59 290.329 1086.05 289.395 1086.05H278.38C277.445 1086.05 276.979 1085.59 276.979 1084.56V1015.28C276.979 1014.35 277.445 1013.79 278.38 1013.79H289.396V1013.79Z" fill="white"/>
<path d="M347.09 1013.79C348.025 1013.79 348.491 1014.26 348.491 1015.19V1084.56C348.491 1085.59 348.025 1086.05 347.09 1086.05H336.075C335.14 1086.05 334.674 1085.59 334.674 1084.56V1015.19C334.674 1014.26 335.14 1013.79 336.075 1013.79H347.09Z" fill="white"/>
<path d="M380.326 1019.2C380.326 1023.97 377.431 1026.77 372.298 1026.77C367.069 1026.77 364.082 1023.96 364.082 1019.2C364.082 1014.44 367.07 1011.73 372.298 1011.73C377.431 1011.73 380.326 1014.44 380.326 1019.2ZM377.712 1033.77C378.646 1033.77 379.112 1034.24 379.112 1035.17V1084.56C379.112 1085.59 378.646 1086.05 377.712 1086.05H366.696C365.761 1086.05 365.295 1085.59 365.295 1084.56V1035.17C365.295 1034.24 365.761 1033.77 366.696 1033.77H377.712Z" fill="white"/>
<path d="M467.899 1053.09L467.806 1084.56C467.806 1085.59 467.338 1086.05 466.406 1086.05H455.388C454.455 1086.05 453.987 1085.59 453.987 1084.56V1059.26C453.987 1045.91 452.588 1045.26 445.119 1045.26C442.598 1045.26 439.89 1045.44 437.555 1045.82C438.397 1048.34 438.77 1051.51 438.77 1055.71L438.677 1084.56C438.677 1085.59 438.302 1086.05 437.369 1086.05H426.258C425.325 1086.05 424.952 1085.59 424.952 1084.56V1056.08C424.857 1045.72 423.178 1045.26 415.989 1045.26H409.641V1084.56C409.641 1085.59 409.173 1086.05 408.24 1086.05H397.222C396.29 1086.05 395.824 1085.59 395.824 1084.56V1036.29C395.824 1035.27 396.197 1035.08 397.037 1034.89C402.172 1033.77 410.107 1033.3 414.962 1033.3C422.15 1033.3 428.22 1034.61 431.675 1036.29C436.808 1034.33 443.159 1033.21 447.919 1033.21C462.483 1033.21 467.899 1037.32 467.899 1053.09Z" fill="white"/>
<path d="M526.246 1049.36V1081.67C526.246 1083.16 525.873 1084 524.193 1084.56C517.657 1086.05 509.441 1086.52 503 1086.52C488.996 1086.52 481.62 1085.03 481.433 1070.37C481.621 1057.77 488.155 1055.06 500.572 1055.06H512.429V1051.7C512.429 1047.22 509.629 1045.26 503.654 1045.26H486.756C485.728 1045.26 485.448 1044.98 485.448 1043.86V1036.2C485.448 1035.08 485.822 1034.9 486.756 1034.71C492.45 1033.59 497.864 1033.31 503.654 1033.31C522.139 1033.3 526.246 1039.28 526.246 1049.36ZM501.693 1064.02C496.837 1064.02 495.157 1065.61 495.157 1069.62C495.157 1074.1 497.211 1075.32 503.092 1075.32C504.959 1075.32 509.722 1075.13 512.428 1074.38V1064.02H501.693V1064.02Z" fill="white"/>
<path d="M557.892 1019.3C558.824 1019.02 559.385 1019.67 559.385 1020.7V1034.05H567.974C569.001 1034.05 569.56 1034.52 569.56 1035.45V1042.92C569.56 1043.86 569.001 1044.32 567.974 1044.32H559.385V1069.81C559.385 1073.82 560.786 1074.57 564.892 1074.57H568.721C569.841 1074.57 570.307 1074.94 570.307 1075.97V1083.91C570.307 1085.03 569.841 1085.49 568.814 1085.68C565.545 1086.33 562.931 1086.52 560.878 1086.52C552.848 1086.52 545.566 1086.24 545.566 1074.47V1044.32H540.057C539.029 1044.32 538.563 1043.85 538.563 1042.92V1035.45C538.563 1034.51 539.029 1034.05 540.057 1034.05H545.566V1023.69C545.566 1022.75 545.939 1022.38 546.872 1022.19L557.892 1019.3Z" fill="white"/>
<path d="M628.845 1033.77C629.779 1033.77 630.244 1034.24 630.244 1035.17V1084.93C630.151 1098.94 627.444 1105.38 607.371 1105.38C600.649 1105.38 595.14 1105.01 589.819 1104.07C588.979 1103.98 588.512 1103.61 588.512 1102.58V1095.48C588.512 1094.46 588.885 1094.08 589.819 1094.08H606.157C614.373 1094.08 616.333 1092.21 616.333 1086.05V1085.49C612.317 1086.24 608.864 1086.52 604.943 1086.52C587.951 1086.52 582.909 1079.98 582.909 1062.43V1035.17C582.909 1034.24 583.375 1033.77 584.31 1033.77H595.418C596.353 1033.77 596.819 1034.24 596.819 1035.17V1059.81C596.819 1071.86 598.593 1074.47 608.023 1074.47C610.356 1074.47 613.717 1074.38 616.332 1073.92V1035.17C616.332 1034.23 616.798 1033.77 617.733 1033.77H628.845V1033.77Z" fill="white"/>
<path d="M686.353 1033.77C687.381 1033.77 687.942 1034.24 687.942 1035.17V1041.52C687.942 1042.27 687.661 1042.73 687.288 1043.29L664.32 1074.1H687.566C688.594 1074.1 689.155 1074.57 689.155 1075.5V1084.56C689.155 1085.59 688.594 1086.05 687.566 1086.05H645.928C644.807 1086.05 644.246 1085.59 644.246 1084.56V1078.49C644.246 1077.84 644.434 1077.37 644.901 1076.72L668.616 1045.44H646.955C645.835 1045.44 645.369 1044.97 645.369 1044.04V1035.17C645.369 1034.24 645.835 1033.77 646.955 1033.77H686.353V1033.77Z" fill="white"/>
<path d="M745.168 1049.36V1081.67C745.168 1083.16 744.795 1084 743.115 1084.56C736.578 1086.05 728.363 1086.52 721.921 1086.52C707.918 1086.52 700.542 1085.03 700.354 1070.37C700.542 1057.77 707.077 1055.06 719.493 1055.06H731.351V1051.7C731.351 1047.22 728.551 1045.26 722.575 1045.26H705.677C704.65 1045.26 704.369 1044.98 704.369 1043.86V1036.2C704.369 1035.08 704.743 1034.9 705.677 1034.71C711.372 1033.59 716.786 1033.31 722.575 1033.31C741.061 1033.3 745.168 1039.28 745.168 1049.36ZM720.616 1064.02C715.759 1064.02 714.079 1065.61 714.079 1069.62C714.079 1074.1 716.134 1075.32 722.015 1075.32C723.882 1075.32 728.644 1075.13 731.351 1074.38V1064.02H720.616V1064.02Z" fill="white"/>
<path d="M798.942 1034.52C799.969 1034.7 800.528 1035.17 800.528 1036.39V1043.76C800.528 1044.79 799.968 1045.26 798.942 1045.26H783.723C775.134 1045.26 773.827 1048.15 773.827 1059.91C773.827 1071.58 775.134 1074.57 783.723 1074.57H798.942C799.969 1074.57 800.528 1075.04 800.528 1075.97V1083.44C800.528 1084.56 799.968 1085.03 798.942 1085.21C793.9 1086.33 787.177 1086.52 783.723 1086.52C763.838 1086.52 760.01 1081.2 760.01 1059.91C760.01 1038.53 763.838 1033.3 783.723 1033.3C787.177 1033.3 793.899 1033.49 798.942 1034.52Z" fill="white"/>
<path d="M827.881 1033.77C828.814 1033.77 829.28 1034.24 829.28 1035.17V1093.62C829.28 1103.98 823.866 1105.38 816.116 1105.38C814.157 1105.38 809.582 1104.91 808.461 1104.63C807.433 1104.26 806.873 1103.98 806.873 1102.77V1094.83C806.873 1093.8 807.434 1093.34 808.555 1093.34H810.796C814.811 1093.34 815.37 1092.87 815.37 1089.14V1035.17C815.37 1034.24 815.836 1033.77 816.771 1033.77H827.881ZM830.496 1019.2C830.496 1023.97 827.6 1026.77 822.372 1026.77C817.236 1026.77 814.249 1023.96 814.249 1019.2C814.249 1014.44 817.236 1011.73 822.372 1011.73C827.601 1011.73 830.496 1014.44 830.496 1019.2Z" fill="white"/>
<path d="M888.003 1049.36V1081.67C888.003 1083.16 887.63 1084 885.95 1084.56C879.414 1086.05 871.198 1086.52 864.757 1086.52C850.752 1086.52 843.377 1085.03 843.19 1070.37C843.378 1057.77 849.912 1055.06 862.331 1055.06H874.186V1051.7C874.186 1047.22 871.386 1045.26 865.411 1045.26H848.511C847.486 1045.26 847.205 1044.98 847.205 1043.86V1036.2C847.205 1035.08 847.578 1034.9 848.511 1034.71C854.208 1033.59 859.622 1033.31 865.411 1033.31C883.895 1033.3 888.003 1039.28 888.003 1049.36ZM863.449 1064.02C858.595 1064.02 856.914 1065.61 856.914 1069.62C856.914 1074.1 858.967 1075.32 864.85 1075.32C866.717 1075.32 871.479 1075.13 874.186 1074.38V1064.02H863.449V1064.02Z" fill="white"/>
<path d="M944.295 1019.2C944.295 1023.97 941.401 1026.77 936.265 1026.77C931.036 1026.77 928.048 1023.96 928.048 1019.2C928.048 1014.44 931.035 1011.73 936.265 1011.73C941.401 1011.73 944.295 1014.44 944.295 1019.2ZM941.682 1033.77C942.616 1033.77 943.081 1034.24 943.081 1035.17V1084.56C943.081 1085.59 942.615 1086.05 941.682 1086.05H930.664C929.731 1086.05 929.266 1085.59 929.266 1084.56V1035.17C929.266 1034.24 929.732 1033.77 930.664 1033.77H941.682Z" fill="white"/>
<path d="M1056.98 1033.77C1057.91 1033.77 1058.19 1034.05 1058.1 1035.08L1050.07 1077.19C1048.48 1085.49 1045.87 1086.52 1037.28 1086.52C1026.54 1086.52 1025.42 1085.49 1023.56 1077.19L1018.98 1056.46L1014.41 1077.19C1012.63 1085.49 1011.42 1086.52 1000.77 1086.52C992.091 1086.52 989.57 1085.49 987.89 1077.19L979.955 1035.08C979.769 1034.05 980.141 1033.77 981.077 1033.77H992.932C993.493 1033.77 993.771 1034.05 993.959 1035.08L1000.4 1073.17C1000.77 1074.76 1001.05 1074.94 1001.89 1074.94C1002.92 1074.94 1003.11 1074.76 1003.39 1073.17L1012.07 1036.67C1012.35 1035.64 1012.82 1035.36 1013.56 1035.36H1024.49C1025.14 1035.36 1025.7 1035.64 1025.89 1036.67L1034.57 1073.17C1034.94 1074.76 1035.13 1074.94 1036.06 1074.94C1036.9 1074.94 1037.28 1074.76 1037.65 1073.17L1044.09 1035.08C1044.28 1034.05 1044.47 1033.77 1045.12 1033.77H1056.98Z" fill="white"/>
<path d="M1116.26 1059.26V1062.15C1116.26 1064.02 1115.7 1064.68 1113.27 1064.68H1083.95C1084.14 1073.08 1086.38 1074.57 1094.51 1074.57H1111.03C1111.96 1074.57 1112.43 1075.04 1112.43 1075.97V1083.72C1112.43 1084.75 1111.96 1085.12 1111.12 1085.21C1106.18 1086.24 1099.45 1086.52 1093.29 1086.52C1074.43 1086.52 1069.86 1081.2 1069.86 1059.91C1069.86 1038.53 1074.43 1033.31 1093.29 1033.31C1111.68 1033.3 1116.16 1038.44 1116.26 1059.26ZM1083.86 1055.62H1102.34C1102.25 1047.4 1100.11 1045.26 1093.29 1045.26C1086.29 1045.26 1083.95 1047.4 1083.86 1055.62Z" fill="white"/>
<path d="M1176.85 1055.71V1084.56C1176.85 1085.59 1176.29 1086.05 1175.35 1086.05H1164.33C1163.4 1086.05 1162.94 1085.59 1162.94 1084.56V1059.26C1162.94 1045.91 1161.53 1045.26 1152.95 1045.26H1144.45V1084.56C1144.45 1085.59 1143.98 1086.05 1143.05 1086.05H1131.94C1131.01 1086.05 1130.54 1085.59 1130.54 1084.56V1036.29C1130.54 1035.17 1131.01 1035.08 1131.94 1034.89C1138.19 1033.49 1147.25 1033.3 1154.25 1033.3C1172.18 1033.3 1176.85 1036.66 1176.85 1055.71Z" fill="white"/>
<path d="M1208.5 1019.3C1209.43 1019.02 1209.99 1019.67 1209.99 1020.7V1034.05H1218.58C1219.61 1034.05 1220.17 1034.52 1220.17 1035.45V1042.92C1220.17 1043.86 1219.61 1044.32 1218.58 1044.32H1209.99V1069.81C1209.99 1073.82 1211.39 1074.57 1215.5 1074.57H1219.32C1220.45 1074.57 1220.91 1074.94 1220.91 1075.97V1083.91C1220.91 1085.03 1220.45 1085.49 1219.42 1085.68C1216.15 1086.33 1213.54 1086.52 1211.48 1086.52C1203.45 1086.52 1196.17 1086.24 1196.17 1074.47V1044.32H1190.67C1189.64 1044.32 1189.17 1043.85 1189.17 1042.92V1035.45C1189.17 1034.51 1189.64 1034.05 1190.67 1034.05H1196.17V1023.69C1196.17 1022.75 1196.55 1022.38 1197.48 1022.19L1208.5 1019.3Z" fill="white"/>
<path d="M1279.45 1033.77C1280.38 1033.77 1280.85 1034.24 1280.85 1035.17V1084.93C1280.76 1098.94 1278.05 1105.38 1257.97 1105.38C1251.25 1105.38 1245.74 1105.01 1240.42 1104.07C1239.58 1103.98 1239.11 1103.61 1239.11 1102.58V1095.48C1239.11 1094.46 1239.49 1094.08 1240.42 1094.08H1256.76C1264.98 1094.08 1266.94 1092.21 1266.94 1086.05V1085.49C1262.92 1086.24 1259.47 1086.52 1255.55 1086.52C1238.55 1086.52 1233.51 1079.98 1233.51 1062.43V1035.17C1233.51 1034.24 1233.98 1033.77 1234.91 1033.77H1246.02C1246.96 1033.77 1247.42 1034.24 1247.42 1035.17V1059.81C1247.42 1071.86 1249.2 1074.47 1258.63 1074.47C1260.96 1074.47 1264.32 1074.38 1266.94 1073.92V1035.17C1266.94 1034.23 1267.4 1033.77 1268.33 1033.77H1279.45V1033.77Z" fill="white"/>
<path d="M1310.07 1013.79C1311 1013.79 1311.47 1014.26 1311.47 1015.19V1084.56C1311.47 1085.59 1311 1086.05 1310.07 1086.05H1299.05C1298.12 1086.05 1297.65 1085.59 1297.65 1084.56V1015.19C1297.65 1014.26 1298.12 1013.79 1299.05 1013.79H1310.07Z" fill="white"/>
<path d="M1370.19 1049.36V1081.67C1370.19 1083.16 1369.82 1084 1368.14 1084.56C1361.6 1086.05 1353.39 1086.52 1346.95 1086.52C1332.94 1086.52 1325.56 1085.03 1325.38 1070.37C1325.56 1057.77 1332.1 1055.06 1344.52 1055.06H1356.38V1051.7C1356.38 1047.22 1353.57 1045.26 1347.6 1045.26H1330.7C1329.67 1045.26 1329.39 1044.98 1329.39 1043.86V1036.2C1329.39 1035.08 1329.76 1034.9 1330.7 1034.71C1336.39 1033.59 1341.81 1033.31 1347.6 1033.31C1366.09 1033.3 1370.19 1039.28 1370.19 1049.36ZM1345.64 1064.02C1340.78 1064.02 1339.1 1065.61 1339.1 1069.62C1339.1 1074.1 1341.16 1075.32 1347.04 1075.32C1348.91 1075.32 1353.67 1075.13 1356.38 1074.38V1064.02H1345.64V1064.02Z" fill="white"/>
<path d="M1423.96 1034.52C1424.99 1034.7 1425.55 1035.17 1425.55 1036.39V1043.76C1425.55 1044.79 1424.99 1045.26 1423.96 1045.26H1408.75C1400.16 1045.26 1398.85 1048.15 1398.85 1059.91C1398.85 1071.58 1400.16 1074.57 1408.75 1074.57H1423.96C1424.99 1074.57 1425.55 1075.04 1425.55 1075.97V1083.44C1425.55 1084.56 1424.99 1085.03 1423.96 1085.21C1418.92 1086.33 1412.2 1086.52 1408.75 1086.52C1388.86 1086.52 1385.04 1081.2 1385.04 1059.91C1385.04 1038.53 1388.86 1033.3 1408.75 1033.3C1412.2 1033.3 1418.92 1033.49 1423.96 1034.52Z" fill="white"/>
<path d="M1452.9 1033.77C1453.84 1033.77 1454.31 1034.24 1454.31 1035.17V1093.62C1454.31 1103.98 1448.89 1105.38 1441.14 1105.38C1439.18 1105.38 1434.61 1104.91 1433.48 1104.63C1432.46 1104.26 1431.9 1103.98 1431.9 1102.77V1094.83C1431.9 1093.8 1432.46 1093.34 1433.58 1093.34H1435.82C1439.83 1093.34 1440.4 1092.87 1440.4 1089.14V1035.17C1440.4 1034.24 1440.86 1033.77 1441.79 1033.77H1452.9ZM1455.52 1019.2C1455.52 1023.97 1452.63 1026.77 1447.4 1026.77C1442.26 1026.77 1439.27 1023.96 1439.27 1019.2C1439.27 1014.44 1442.26 1011.73 1447.4 1011.73C1452.63 1011.73 1455.52 1014.44 1455.52 1019.2Z" fill="white"/>
<path d="M1513.03 1049.36V1081.67C1513.03 1083.16 1512.66 1084 1510.97 1084.56C1504.44 1086.05 1496.23 1086.52 1489.78 1086.52C1475.78 1086.52 1468.4 1085.03 1468.22 1070.37C1468.4 1057.77 1474.94 1055.06 1487.36 1055.06H1499.21V1051.7C1499.21 1047.22 1496.41 1045.26 1490.44 1045.26H1473.54C1472.51 1045.26 1472.23 1044.98 1472.23 1043.86V1036.2C1472.23 1035.08 1472.61 1034.9 1473.54 1034.71C1479.24 1033.59 1484.65 1033.31 1490.44 1033.31C1508.92 1033.3 1513.03 1039.28 1513.03 1049.36ZM1488.48 1064.02C1483.62 1064.02 1481.94 1065.61 1481.94 1069.62C1481.94 1074.1 1484 1075.32 1489.88 1075.32C1491.75 1075.32 1496.51 1075.13 1499.22 1074.38V1064.02H1488.48V1064.02Z" fill="white"/>
<path fill-rule="evenodd" clip-rule="evenodd" d="M1149.4 554.938C1149.73 510.357 1114.46 470.315 1064.84 470.361C1015.84 470.406 980.524 509.929 980.447 554.748C980.373 598.734 1014.91 639.319 1065.09 639.358C1113.22 639.401 1149.48 600.646 1149.4 554.938ZM899.771 554.356C856.356 554.363 821.012 589.615 821.161 633.04C821.307 675.34 854.582 711.664 899.943 711.59C944.571 711.517 978.174 676.508 978.585 632.868C978.988 589.643 943.267 554.349 899.771 554.356ZM1204.66 389.846C1205.8 354.826 1177.42 319.89 1134.59 319.271C1096.14 318.713 1064.18 350.963 1064.12 389.725C1064.07 428.493 1095.67 460.45 1134.46 460.258C1176.38 460.048 1205.67 425.515 1204.66 389.846ZM733.157 481.298C733.239 447.569 706.213 420.082 672.841 419.958C638.794 419.83 611.02 446.781 611.149 480.887C611.278 515.094 637.815 541.635 672.224 542.081C705.602 542.514 733.076 514.821 733.157 481.298ZM751.521 646.632C782.233 647.691 812.869 622.903 812.905 585.239C812.939 552.203 785.627 525.146 752.859 525.019C718.298 524.884 691.038 551.488 690.947 585.439C690.855 619.69 717.414 646.52 751.521 646.632ZM887.386 463.217C887.405 434.724 864.407 411.492 836.057 411.364C807.577 411.236 784.076 434.637 784.089 463.112C784.104 491.435 807.385 514.67 835.734 514.656C864.232 514.641 887.367 491.603 887.386 463.217ZM853.586 373.361C877.126 373.427 895.942 354.861 896.002 331.508C896.062 308.196 877.239 289.105 854.069 288.979C830.927 288.851 811.674 307.931 811.641 331.028C811.605 354.557 830.175 373.296 853.586 373.361ZM794.452 384.47C794.433 360.867 775.949 342.333 752.473 342.377C728.896 342.421 710.323 361.307 710.496 385.059C710.666 408.262 729.363 426.76 752.629 426.738C775.995 426.719 794.472 408.045 794.452 384.47ZM769.441 288.099C769.49 266.835 753.032 250.188 731.97 250.201C711.588 250.211 694.43 267.588 694.553 288.097C694.675 308.398 711.425 325.057 731.779 325.121C753.141 325.186 769.394 309.21 769.441 288.099ZM651.6 262.184C635.867 262.123 623.221 274.511 623.111 290.09C623.004 305.309 635.717 318.088 651.055 318.176C666.698 318.265 679.547 305.656 679.565 290.199C679.582 274.911 666.937 262.244 651.6 262.184ZM781.368 264.728C781.338 280.391 793.873 292.991 809.447 292.953C824.503 292.914 837.343 279.942 837.366 264.746C837.389 249.584 824.571 236.62 809.45 236.51C794.071 236.398 781.4 249.13 781.368 264.728ZM743.133 236.451C758.914 236.427 771.027 224.429 771.057 208.795C771.083 193.189 758.351 180.366 742.943 180.48C727.58 180.595 715.087 193.173 715.065 208.555C715.042 224.514 727.079 236.475 743.133 236.451ZM832.503 170.825C819.143 170.797 809.005 180.879 809.022 194.179C809.037 207.134 819.328 217.363 832.333 217.356C845.404 217.347 855.514 207.234 855.549 194.136C855.581 181.026 845.526 170.855 832.503 170.825ZM890.896 131.794C890.935 118.662 880.678 108.426 867.381 108.326C855.029 108.234 844.45 118.876 844.366 131.478C844.28 144.479 854.928 155.286 867.751 155.21C880.65 155.133 890.859 144.803 890.896 131.794ZM783.944 135.449C773.493 135.479 765.356 143.543 765.301 153.924C765.248 163.888 773.931 172.512 784.028 172.521C794.239 172.53 802.772 164.172 802.853 154.075C802.939 143.576 794.657 135.418 783.944 135.449ZM945.227 106.769C945.227 98.7561 939.732 93.2351 931.734 93.2091C923.49 93.1821 917.624 98.8251 917.627 106.781C917.627 114.694 923.663 120.813 931.454 120.803C939.23 120.795 945.227 114.686 945.227 106.769Z" fill="white"/>
<path fill-rule="evenodd" clip-rule="evenodd" d="M604.764 364.748C605.322 362.83 605.922 360.924 606.43 358.993C611.523 339.66 630.535 325.879 650.555 328.12C673.607 330.702 689.126 347.827 689.204 369.658C689.284 391.03 673.849 409.148 653.183 411.944C630.722 414.985 610.225 400.48 605.703 378.369C605.477 377.259 605.081 376.181 604.765 375.088C604.764 371.641 604.764 368.194 604.764 364.748Z" fill="white"/>
<path fill-rule="evenodd" clip-rule="evenodd" d="M1149.4 554.938C1149.48 600.646 1113.22 639.401 1065.09 639.359C1014.91 639.32 980.372 598.735 980.446 554.749C980.523 509.93 1015.83 470.407 1064.83 470.362C1114.46 470.316 1149.73 510.357 1149.4 554.938Z" fill="white"/>
<path fill-rule="evenodd" clip-rule="evenodd" d="M899.771 554.356C943.266 554.349 978.988 589.643 978.584 632.868C978.174 676.508 944.57 711.516 899.942 711.59C854.581 711.664 821.305 675.34 821.16 633.04C821.012 589.615 856.356 554.363 899.771 554.356Z" fill="white"/>
<path fill-rule="evenodd" clip-rule="evenodd" d="M1204.66 389.846C1205.67 425.515 1176.38 460.049 1134.46 460.258C1095.67 460.45 1064.07 428.493 1064.12 389.725C1064.18 350.963 1096.14 318.713 1134.59 319.271C1177.42 319.89 1205.8 354.826 1204.66 389.846Z" fill="white"/>
<path fill-rule="evenodd" clip-rule="evenodd" d="M733.157 481.298C733.076 514.821 705.602 542.514 672.223 542.081C637.813 541.635 611.277 515.094 611.148 480.887C611.02 446.781 638.794 419.829 672.84 419.958C706.212 420.083 733.239 447.569 733.157 481.298Z" fill="white"/>
<path fill-rule="evenodd" clip-rule="evenodd" d="M751.521 646.632C717.415 646.52 690.856 619.691 690.947 585.439C691.038 551.488 718.298 524.884 752.859 525.019C785.628 525.146 812.939 552.204 812.905 585.239C812.868 622.902 782.233 647.69 751.521 646.632Z" fill="white"/>
<path fill-rule="evenodd" clip-rule="evenodd" d="M887.386 463.217C887.366 491.603 864.232 514.641 835.734 514.655C807.385 514.669 784.104 491.434 784.089 463.111C784.075 434.636 807.577 411.235 836.057 411.363C864.407 411.492 887.405 434.724 887.386 463.217Z" fill="white"/>
<path fill-rule="evenodd" clip-rule="evenodd" d="M853.586 373.361C830.174 373.296 811.605 354.557 811.64 331.028C811.673 307.931 830.926 288.851 854.068 288.979C877.238 289.105 896.061 308.196 896.001 331.508C895.942 354.861 877.126 373.428 853.586 373.361Z" fill="white"/>
<path fill-rule="evenodd" clip-rule="evenodd" d="M794.452 384.47C794.473 408.045 775.995 426.719 752.629 426.738C729.363 426.759 710.667 408.262 710.496 385.059C710.323 361.308 728.896 342.421 752.473 342.377C775.949 342.333 794.433 360.867 794.452 384.47Z" fill="white"/>
<path fill-rule="evenodd" clip-rule="evenodd" d="M769.441 288.099C769.394 309.21 753.141 325.186 731.778 325.12C711.424 325.057 694.674 308.397 694.552 288.096C694.429 267.588 711.587 250.21 731.969 250.2C753.032 250.188 769.49 266.835 769.441 288.099Z" fill="white"/>
<path fill-rule="evenodd" clip-rule="evenodd" d="M651.6 262.184C666.937 262.244 679.582 274.911 679.564 290.2C679.546 305.657 666.697 318.266 651.054 318.177C635.716 318.089 623.003 305.31 623.11 290.091C623.221 274.511 635.867 262.124 651.6 262.184Z" fill="white"/>
<path fill-rule="evenodd" clip-rule="evenodd" d="M781.368 264.728C781.4 249.131 794.071 236.398 809.451 236.509C824.571 236.619 837.389 249.583 837.367 264.745C837.344 279.941 824.504 292.913 809.448 292.952C793.873 292.99 781.338 280.39 781.368 264.728Z" fill="white"/>
<path fill-rule="evenodd" clip-rule="evenodd" d="M743.133 236.451C727.078 236.475 715.042 224.514 715.065 208.555C715.087 193.173 727.58 180.595 742.943 180.48C758.351 180.366 771.084 193.189 771.057 208.795C771.027 224.428 758.914 236.426 743.133 236.451Z" fill="white"/>
<path fill-rule="evenodd" clip-rule="evenodd" d="M832.503 170.825C845.526 170.855 855.581 181.026 855.548 194.135C855.513 207.234 845.403 217.346 832.332 217.355C819.327 217.362 809.036 207.133 809.021 194.178C809.005 180.879 819.143 170.797 832.503 170.825Z" fill="white"/>
<path fill-rule="evenodd" clip-rule="evenodd" d="M890.896 131.794C890.859 144.803 880.65 155.133 867.751 155.211C854.928 155.287 844.28 144.48 844.366 131.479C844.45 118.876 855.03 108.234 867.381 108.327C880.678 108.426 890.935 118.662 890.896 131.794Z" fill="white"/>
<path fill-rule="evenodd" clip-rule="evenodd" d="M783.944 135.449C794.657 135.418 802.94 143.575 802.854 154.074C802.773 164.171 794.24 172.53 784.029 172.52C773.932 172.512 765.249 163.887 765.302 153.923C765.355 143.543 773.493 135.479 783.944 135.449Z" fill="white"/>
<path fill-rule="evenodd" clip-rule="evenodd" d="M945.227 106.769C945.227 114.686 939.231 120.795 931.454 120.804C923.663 120.813 917.627 114.694 917.627 106.782C917.624 98.8261 923.49 93.1831 931.734 93.2101C939.731 93.2351 945.227 98.7561 945.227 106.769Z" fill="white"/>
</svg>
