<svg width="150" height="150" viewBox="0 0 150 150" fill="none" xmlns="http://www.w3.org/2000/svg">
<path d="M130.318 61.2305L132.981 49.5609C133.099 49.046 133.099 48.5113 132.981 47.9964C132.864 47.4815 132.632 46.9997 132.303 46.5867L124.84 37.2287L122.176 25.5595C122.059 25.0446 121.827 24.5628 121.498 24.1499C121.168 23.737 120.75 23.4036 120.275 23.1744L109.491 17.981L102.028 8.62295C101.698 8.21003 101.28 7.87661 100.804 7.64746C100.328 7.41831 99.8071 7.29932 99.2789 7.29932H87.3097L76.5255 2.10586C76.0496 1.87677 75.5282 1.75781 75 1.75781C74.4718 1.75781 73.9504 1.87677 73.4745 2.10586L62.6903 7.29932H50.7211C50.193 7.29936 49.6717 7.41837 49.1959 7.64752C48.7201 7.87667 48.302 8.21007 47.9727 8.62295L40.5097 17.981L29.7258 23.1738C29.2499 23.403 28.8318 23.7364 28.5025 24.1493C28.1731 24.5622 27.9411 25.044 27.8235 25.5589L25.1602 37.2287L17.6974 46.5867C17.368 46.9996 17.136 47.4814 17.0184 47.9963C16.9008 48.5112 16.9008 49.046 17.0183 49.5609L19.6819 61.2305L17.0183 72.9C16.9008 73.4149 16.9008 73.9497 17.0184 74.4646C17.136 74.9795 17.368 75.4613 17.6974 75.8742L25.1602 85.2322L27.8235 96.9015C27.9411 97.4164 28.1731 97.8982 28.5025 98.3111C28.8318 98.724 29.2499 99.0574 29.7258 99.2865L38.0408 103.291L20.5456 126.294C18.9519 128.264 20.1885 131.482 22.6913 131.877L36.4125 134.469L42.5745 147.001C43.6248 149.306 47.0493 149.643 48.5276 147.578L70.3711 118.86L73.4766 120.354C73.9525 120.583 74.4739 120.702 75.002 120.702C75.5302 120.702 76.0516 120.583 76.5275 120.354L79.633 118.86L101.475 147.578C102.954 149.643 106.378 149.307 107.428 147.001L113.59 134.469L127.312 131.877C129.814 131.482 131.051 128.264 129.457 126.294L111.962 103.291L120.275 99.2871C120.75 99.0579 121.168 98.7245 121.498 98.3116C121.827 97.8987 122.059 97.4169 122.176 96.9021L124.84 85.2328L132.303 75.8748C132.632 75.4619 132.864 74.9801 132.981 74.4652C133.099 73.9503 133.099 73.4155 132.981 72.9006L130.318 61.2305ZM46.3746 138.795L41.947 129.79C41.7063 129.3 41.3549 128.873 40.9205 128.542C40.4861 128.211 39.9808 127.987 39.4444 127.885L29.5852 126.023L43.3046 107.984L47.9727 113.837C48.302 114.25 48.7201 114.583 49.1959 114.812C49.6717 115.041 50.193 115.16 50.7211 115.16H62.6903L63.9038 115.746L46.3746 138.795ZM110.555 127.886C110.019 127.988 109.514 128.212 109.079 128.543C108.645 128.873 108.294 129.301 108.053 129.79L103.625 138.795L86.0962 115.746L87.3097 115.16H99.2789C99.8071 115.16 100.328 115.041 100.804 114.812C101.28 114.583 101.698 114.249 102.028 113.837L106.695 107.984L120.415 126.022L110.555 127.886ZM123.285 62.0127L125.75 72.8139L118.842 81.4746C118.513 81.8876 118.281 82.3694 118.163 82.8844L115.698 93.6853L105.717 98.4932C105.241 98.7224 104.823 99.0558 104.493 99.4687L97.5858 108.13H86.5069C85.9788 108.13 85.4574 108.249 84.9814 108.478L75 113.285L65.0183 108.478C64.5425 108.249 64.0212 108.13 63.4931 108.13H52.4142L45.5065 99.4687C45.1773 99.0558 44.7592 98.7224 44.2834 98.4932L34.3017 93.6861L31.8366 82.8853C31.7191 82.3703 31.4871 81.8885 31.1578 81.4755L24.2499 72.8139L26.7152 62.0127C26.8327 61.4978 26.8327 60.9631 26.7152 60.4482L24.2499 49.6471L31.1578 40.9863C31.4871 40.5734 31.7191 40.0915 31.8366 39.5766L34.3017 28.7757L44.2834 23.9678C44.7592 23.7386 45.1773 23.4051 45.5065 22.9922L52.4142 14.3306H63.4931C64.0212 14.3306 64.5425 14.2116 65.0183 13.9825L75 9.17549L84.9814 13.9825C85.4574 14.2116 85.9788 14.3305 86.5069 14.3306H97.5858L104.493 22.9922C104.823 23.4051 105.241 23.7386 105.717 23.9678L115.698 28.7748L118.163 39.5757C118.281 40.0906 118.513 40.5725 118.842 40.9855L125.75 49.6471L123.285 60.4482C123.167 60.9631 123.167 61.4979 123.285 62.0127Z" fill="black"/>
<path d="M75 18.75C51.416 18.75 32.2266 37.9395 32.2266 61.5234C32.2266 85.1074 51.416 104.297 75 104.297C98.584 104.297 117.773 85.1089 117.773 61.5234C117.773 37.938 98.5854 18.75 75 18.75ZM75 97.2656C67.9309 97.2656 61.0205 95.1694 55.1427 91.242C49.2649 87.3146 44.6838 81.7324 41.9785 75.2014C39.2733 68.6703 38.5655 61.4838 39.9446 54.5505C41.3237 47.6172 44.7278 41.2485 49.7265 36.2499C54.7251 31.2513 61.0937 27.8471 68.027 26.468C74.9603 25.0889 82.1469 25.7967 88.6779 28.502C95.209 31.2072 100.791 35.7884 104.719 41.6661C108.646 47.5439 110.742 54.4543 110.742 61.5234C110.731 70.9996 106.962 80.0845 100.262 86.7852C93.5611 93.4858 84.4761 97.2549 75 97.2656V97.2656Z" fill="black"/>
<path d="M95.3218 56.6728C94.7501 56.2993 94.0821 56.1005 93.3992 56.1005C92.7164 56.1005 92.0483 56.2993 91.4766 56.6728L84.2696 61.3799L78.0027 51.0967C77.6889 50.5818 77.2479 50.1563 76.7222 49.861C76.1965 49.5657 75.6036 49.4106 75.0006 49.4106C74.3977 49.4106 73.8048 49.5657 73.2791 49.861C72.7533 50.1563 72.3124 50.5818 71.9986 51.0967L65.732 61.3799L58.5249 56.6728C57.9532 56.2992 57.2851 56.1003 56.6022 56.1003C55.9192 56.1003 55.2511 56.2992 54.6793 56.6727C54.1076 57.0462 53.657 57.5781 53.3826 58.2035C53.1083 58.8289 53.022 59.5206 53.1343 60.1943L56.4797 80.2658C56.6166 81.0865 57.04 81.832 57.6748 82.3698C58.3095 82.9076 59.1145 83.2029 59.9464 83.2031H90.0537C90.8859 83.2032 91.6911 82.908 92.3261 82.3701C92.9611 81.8321 93.3847 81.0864 93.5215 80.2655L96.8669 60.194C96.9792 59.5204 96.8928 58.8287 96.6185 58.2034C96.3441 57.5781 95.8935 57.0462 95.3218 56.6728V56.6728ZM87.0756 76.1719H62.9245L61.3858 66.9396L64.9237 69.2499C65.3179 69.5075 65.7599 69.6832 66.2233 69.7666C66.6868 69.8501 67.1623 69.8396 67.6216 69.7357C68.0809 69.6319 68.5147 69.4369 68.8972 69.1622C69.2797 68.8875 69.6031 68.5387 69.8482 68.1366L75 59.6816L80.1522 68.1358C80.3973 68.5378 80.7207 68.8866 81.1032 69.1613C81.4857 69.436 81.9195 69.631 82.3788 69.7349C82.8381 69.8387 83.3136 69.8492 83.777 69.7658C84.2405 69.6823 84.6825 69.5066 85.0767 69.249L88.6143 66.9387L87.0756 76.1719Z" fill="black"/>
<path d="M75 46.9705C76.9416 46.9705 78.5156 45.3965 78.5156 43.4549C78.5156 41.5133 76.9416 39.9393 75 39.9393C73.0584 39.9393 71.4844 41.5133 71.4844 43.4549C71.4844 45.3965 73.0584 46.9705 75 46.9705Z" fill="black"/>
<path d="M99.6094 56.25C101.551 56.25 103.125 54.676 103.125 52.7344C103.125 50.7927 101.551 49.2188 99.6094 49.2188C97.6677 49.2188 96.0938 50.7927 96.0938 52.7344C96.0938 54.676 97.6677 56.25 99.6094 56.25Z" fill="black"/>
<path d="M50.3906 56.25C52.3323 56.25 53.9062 54.676 53.9062 52.7344C53.9062 50.7927 52.3323 49.2188 50.3906 49.2188C48.449 49.2188 46.875 50.7927 46.875 52.7344C46.875 54.676 48.449 56.25 50.3906 56.25Z" fill="black"/>
</svg>
