<svg width="150" height="150" viewBox="0 0 150 150" fill="none" xmlns="http://www.w3.org/2000/svg">
<g clip-path="url(#clip0)">
<path d="M119.408 54.6451C119.809 54.8429 120.246 54.9416 120.683 54.9416C121.141 54.9416 121.6 54.8332 122.015 54.6167C124.35 53.3997 131.974 48.9533 132.061 42.8355C132.186 39.1687 128.859 35.3971 124.733 35.4645C123.285 35.4645 121.89 35.8793 120.697 36.651C119.514 35.8787 118.135 35.4645 116.705 35.4645C112.894 35.424 109.41 38.7709 109.324 42.7594C109.196 49.1083 117.01 53.4621 119.408 54.6451V54.6451ZM116.684 39.859H116.704C117.452 39.859 118.168 40.1458 118.722 40.6682C118.723 40.6685 118.723 40.6687 118.723 40.669C119.822 41.7041 121.552 41.7047 122.661 40.6708C123.223 40.1473 123.958 39.859 124.732 39.859C125.909 39.8786 127.59 40.8158 127.667 42.7723C127.625 45.668 123.523 48.7348 120.665 50.3493C117.777 48.7948 113.657 45.8004 113.717 42.8481C113.749 41.2667 115.135 39.8698 116.684 39.859V39.859Z" fill="black"/>
<path d="M27.9625 54.6454C28.363 54.8429 28.7995 54.9416 29.2367 54.9416C29.6949 54.9416 30.1531 54.8332 30.5688 54.6167C32.9032 53.3997 40.5268 48.9533 40.6147 42.8353C40.7392 39.169 37.4116 35.3971 33.2858 35.4645C31.8379 35.4645 30.4434 35.8793 29.2504 36.651C28.0528 35.8693 26.6512 35.4536 25.206 35.4645C21.2453 35.4926 17.9574 38.7653 17.8768 42.7594C17.7491 49.1083 25.5637 53.4621 27.9625 54.6454V54.6454ZM25.2373 39.859H25.2578C26.0061 39.859 26.7221 40.1458 27.2758 40.6682C27.2761 40.6685 27.2764 40.6687 27.2767 40.669C28.3756 41.7038 30.1053 41.705 31.2142 40.6708C31.7758 40.1473 32.5115 39.859 33.2855 39.859C34.4623 39.8786 36.144 40.8158 36.2204 42.7723C36.1788 45.668 32.0761 48.7348 29.2185 50.3493C26.3307 48.7948 22.211 45.8004 22.2707 42.8481C22.3027 41.2664 23.689 39.8698 25.2373 39.859Z" fill="black"/>
<path d="M14.069 61.4265H21.1383C21.3903 61.4265 21.6276 61.5246 21.806 61.7024L26.5914 66.4784C27.3235 67.2088 28.2882 67.5744 29.2533 67.5744C30.2095 67.5744 31.1658 67.2155 31.8958 66.4969L36.7738 61.6978C36.9516 61.5226 37.1872 61.4262 37.4368 61.4262H44.4214C48.7521 61.4262 52.2753 57.9032 52.2753 53.5723V45.334C53.3412 45.7195 54.4896 45.9308 55.6867 45.9308H65.1601C65.8829 45.9308 66.5713 46.2422 67.0489 46.7842L71.8386 52.2255C72.6686 53.1686 73.8654 53.712 75.1216 53.717H75.1392C76.389 53.717 77.5826 53.1838 78.4163 52.2519L83.3215 46.7692C83.7982 46.2363 84.4817 45.9308 85.1968 45.9308H94.5651C95.6455 45.9308 96.6856 45.7573 97.6618 45.4406V53.5726C97.6618 57.9032 101.185 61.4265 105.516 61.4265H112.585C112.837 61.4265 113.074 61.5246 113.253 61.7024L118.038 66.4784C118.77 67.2088 119.735 67.5744 120.7 67.5744C121.656 67.5744 122.612 67.2155 123.343 66.4969L128.221 61.6975C128.399 61.5226 128.634 61.4262 128.884 61.4262H135.869C140.199 61.4262 143.722 57.9032 143.722 53.5723V33.1831C143.722 28.8524 140.199 25.3292 135.869 25.3292H104.618V10.0532C104.618 4.50996 100.108 0 94.5648 0H76.6644C75.4506 0 74.4671 0.983496 74.4671 2.19727C74.4671 3.41104 75.4506 4.39453 76.6644 4.39453H94.5648C97.6849 4.39453 100.223 6.93311 100.223 10.0532V35.8772C100.223 38.9977 97.6849 41.5362 94.5648 41.5362H85.1965C83.2328 41.5362 81.3554 42.3756 80.0458 43.839L75.1372 49.3219L70.3477 43.8806C69.0361 42.3908 67.1453 41.5362 65.1601 41.5362H55.6867C52.5663 41.5362 50.0277 38.9977 50.0277 35.8772V10.0532C50.0277 6.93311 52.5663 4.39453 55.6867 4.39453H66.4105C67.624 4.39453 68.6078 3.41104 68.6078 2.19727C68.6078 0.983496 67.624 0 66.4105 0H55.6867C50.1431 0 45.6331 4.50996 45.6331 10.0532V25.3298H14.069C9.73833 25.3298 6.21509 28.8527 6.21509 33.1837V53.5729C6.21509 57.9035 9.73833 61.4265 14.069 61.4265V61.4265ZM135.868 29.7243C137.776 29.7243 139.327 31.2762 139.327 33.1837V53.5729C139.327 55.4804 137.776 57.0322 135.868 57.0322H128.884C127.474 57.0322 126.144 57.5766 125.139 58.5653L120.703 62.9294L116.357 58.592C115.349 57.5859 114.009 57.0319 112.585 57.0319H105.515C103.608 57.0319 102.056 55.4801 102.056 53.5726V42.5725C103.648 40.7933 104.618 38.4466 104.618 35.877V29.724H135.868V29.7243ZM10.6096 33.1837C10.6096 31.2762 12.1615 29.7243 14.069 29.7243H45.6331V35.8772C45.6331 38.2731 46.4769 40.4748 47.8808 42.2039V53.5726C47.8808 55.4801 46.329 57.0319 44.4214 57.0319H37.4368C36.027 57.0319 34.6972 57.5763 33.692 58.565L29.2559 62.9291L24.91 58.5917C23.9019 57.5856 22.5624 57.0316 21.138 57.0316H14.0687C12.1612 57.0316 10.6093 55.4798 10.6093 53.5723V33.1837H10.6096Z" fill="black"/>
<path d="M58.8579 20.7229C58.6753 29.7715 70.1536 36.1442 73.6748 37.8812C74.1262 38.1041 74.619 38.2154 75.1118 38.2154C75.6283 38.2154 76.1442 38.0933 76.613 37.8492C80.0489 36.0586 91.2687 29.5359 91.3944 20.7987C91.5804 15.6645 86.897 10.5694 81.3239 10.6811C79.0654 10.6811 76.9018 11.4138 75.1302 12.7629C73.3528 11.398 71.1921 10.6726 68.9369 10.6811C63.4903 10.7194 58.9689 15.2241 58.8579 20.7229V20.7229ZM68.9685 15.0756C68.982 15.0753 68.9955 15.0753 69.0089 15.0753C70.4571 15.0753 71.8411 15.629 72.9095 16.6362V16.6365C74.1464 17.8023 76.0953 17.802 77.3462 16.6359C78.4261 15.629 79.8379 15.0756 81.3239 15.0756C84.0218 15.0287 87.0749 17.4712 87.0005 20.7358C86.9304 25.5999 80.6606 30.6744 75.0983 33.6782C69.4537 30.7852 63.151 25.7933 63.2512 20.8116C63.3139 17.7237 65.9316 15.097 68.9685 15.0756V15.0756Z" fill="black"/>
<path d="M144.692 133.092V101.087C144.692 87.9141 133.975 77.1973 120.802 77.1973C117.016 77.1973 113.246 78.1061 109.9 79.8252C108.82 80.3798 108.395 81.7043 108.95 82.7836C109.504 83.8632 110.829 84.2886 111.908 83.734C114.675 82.3125 117.667 81.5918 120.802 81.5918C131.552 81.5918 140.297 90.3372 140.297 101.087V129.216C140.237 129.19 140.18 129.16 140.119 129.135H140.12L129.054 124.575V120.279C133.282 116.057 136.534 109.286 136.534 103.057C136.534 95.0353 132.963 88.732 126.98 86.1955C126.437 85.9652 125.823 85.9641 125.277 86.1908C124.899 86.3713 124.207 86.7882 123.975 87.7494C122.651 93.7945 117.885 98.5371 111.834 99.832L106.805 100.908C105.96 101.072 105.078 102.085 105.073 103.497C105.225 109.665 108.422 116.204 112.551 120.307V124.575L103.81 128.177C103.105 127.307 102.263 126.544 101.308 125.917V101.087C101.308 97.0588 102.525 93.1937 104.828 89.9089C105.525 88.9151 105.284 87.5452 104.291 86.8485C103.296 86.1519 101.927 86.3927 101.23 87.3861C98.406 91.4139 96.9136 96.1515 96.9136 101.087V123.884L84.889 118.929V110.582C90.3939 106.123 93.6555 98.1009 94.2622 90.2089C97.143 88.1417 98.8252 83.9607 99.7551 80.6139C100.392 78.3223 100.002 75.876 98.6854 73.9022C97.8534 72.6545 96.7041 71.6795 95.3761 71.0628C95.5079 70.3304 95.5416 69.5783 95.4745 68.8228C95.1153 64.7938 91.9305 61.6145 87.9013 61.263C86.3957 61.132 84.906 61.4106 83.58 62.0391C81.9599 58.9233 78.7047 56.8359 74.9998 56.8359C73.3595 56.8359 71.7587 57.2531 70.3413 58.0333C68.8885 56.8837 67.0905 56.25 65.1854 56.25C61.479 56.25 58.3296 58.628 57.2424 62.0136C52.1298 62.9795 48.3396 67.4229 48.3396 72.8027C48.3396 75.254 49.1503 77.608 50.6397 79.5281C50.6005 80.7618 50.6046 83.0367 51.0139 85.2193C51.7832 89.3221 54.5055 91.4722 56.144 92.4202C56.3397 93.854 56.6175 95.2816 56.9831 96.6759C57.2406 97.5041 58.3105 98.6121 59.6655 98.2444C60.8395 97.9368 61.5417 96.7359 61.2341 95.562C60.8433 94.0699 60.5597 92.5342 60.3918 90.9976C60.2948 90.148 60.6121 89.7744 62.5387 88.8343C63.8421 88.2105 65.5062 87.4145 66.5409 85.7766C70.9187 86.2644 75.8099 83.8274 78.187 80.0909C79.685 81.0659 81.9511 81.9401 84.301 81.7043C85.4219 84.099 87.0036 85.1895 88.2209 86.0285C89.5299 86.9306 89.933 87.2112 89.9406 88.8694C89.4856 99.1383 83.8044 109.742 75.0634 109.742C70.2329 109.742 66.9897 106.673 65.1197 104.098C64.4063 103.116 63.0323 102.898 62.0506 103.612C61.0688 104.325 60.8509 105.699 61.564 106.681C62.6834 108.222 63.9156 109.532 65.2437 110.605V118.929C61.624 120.42 54.2351 123.465 50.6825 124.929C48.9194 125.655 47.4259 126.8 46.2886 128.218L37.4485 124.575V117.819C40.5452 115.071 43.1878 111.051 44.5817 106.644C45.2104 106.553 45.7741 106.197 46.1201 105.656C48.4044 102.088 52.7922 91.2668 45.7577 84.1436C42.993 81.3442 39.1035 80.7557 35.8943 81.3697C35.7596 81.0762 35.6066 80.7935 35.4341 80.5236C32.4666 75.8874 24.797 75.2373 17.9731 79.0441C16.9135 79.6353 16.5335 80.9736 17.1247 82.0333C17.7159 83.0933 19.0542 83.4735 20.1142 82.8817C25.2323 80.0273 30.2541 80.5822 31.733 82.8926C32.3453 83.8491 32.3846 85.3192 31.8408 86.9271C31.0334 89.3142 28.7195 92.3933 24.6467 93.8757C19.953 95.584 16.7087 98.267 14.7162 100.376C13.8897 97.478 13.414 93.3372 14.5486 89.5743C14.899 88.4124 14.241 87.1866 13.0791 86.8362C11.9166 86.4861 10.6914 87.1436 10.341 88.3058C8.31367 95.03 10.3 102.742 12.2813 105.837C12.6385 106.395 13.2247 106.756 13.8722 106.833C15.2825 111.151 17.8973 115.09 20.9459 117.801V124.575C20.7446 124.663 9.97012 129.087 9.75654 129.191C6.24473 130.696 3.98096 134.115 3.98096 137.946V144.87C3.98096 147.698 6.28223 150 9.11084 150H140.888C143.717 150 146.018 147.699 146.018 144.87V137.945C146.018 136.193 145.541 134.529 144.692 133.092V133.092ZM87.8286 78.5982C87.6672 78.022 87.2778 77.5365 86.7505 77.2538C86.2232 76.9711 85.6035 76.916 85.0346 77.1006C84.5371 77.262 84.0194 77.3438 83.4959 77.3438C81.8418 77.3438 80.299 76.5246 79.3688 75.1523C78.8989 74.4592 78.0766 74.0933 77.2451 74.209C76.4151 74.3253 75.7237 74.9036 75.4624 75.7002C74.3348 79.1364 71.1467 81.4453 67.5291 81.4453C67.1216 81.4453 66.1352 81.2936 65.5976 81.1913C64.4289 80.9687 63.296 81.7154 63.0396 82.8768C62.8501 83.7369 62.1977 84.1257 60.642 84.8698C59.4815 85.425 57.952 86.1565 56.9614 87.5584C56.2712 86.8541 55.6003 85.8343 55.3331 84.4099C54.8532 81.8508 55.065 78.97 55.0671 78.9431C55.1148 78.3319 54.9051 77.7287 54.4888 77.279C53.3573 76.057 52.7339 74.4671 52.7339 72.803C52.7339 69.2159 55.542 66.3229 59.1268 66.2171C60.2356 66.1843 61.1462 65.33 61.2496 64.2252C61.4406 62.1838 63.1325 60.6445 65.1854 60.6445C66.4267 60.6445 67.5733 61.2164 68.3315 62.2134C68.7001 62.6982 69.2535 63.0085 69.8597 63.0697C70.4655 63.131 71.0699 62.9379 71.5284 62.5365C72.4899 61.6942 73.7228 61.2305 74.9998 61.2305C77.6846 61.2305 79.9366 63.2388 80.2378 65.9019C80.3368 66.777 80.9488 67.5085 81.7929 67.7604C82.6387 68.0136 83.5501 67.7355 84.1123 67.0579C84.9549 66.0419 86.1947 65.5248 87.5192 65.6408C89.3919 65.8043 90.93 67.3397 91.0967 69.213C91.1676 70.0075 91.005 70.7912 90.6268 71.4797C90.2723 72.1245 90.2641 72.9041 90.6051 73.5563C90.9461 74.2084 91.5909 74.6467 92.3228 74.7231C93.2893 74.8052 94.2622 75.2851 95.0289 76.3403C95.6354 77.2497 95.8147 78.3785 95.5202 79.4373C94.9035 81.658 94.1298 83.5113 93.2907 84.8382C92.5522 83.676 91.5493 82.9849 90.7147 82.4098C89.4555 81.5417 88.4606 80.8559 87.8286 78.5982V78.5982ZM112.753 104.13C119.515 102.683 125.02 97.8677 127.428 91.5161C130.416 93.8484 132.139 97.9805 132.139 103.058C132.139 110.943 125.277 120.065 120.8 120.065C116.651 120.065 110.456 112.299 109.569 104.812L112.753 104.13ZM71.1634 145.605C70.3568 138.039 67.5042 130.73 62.9828 124.614L66.9235 122.99C69.1557 124.968 72.0432 126.081 75.0637 126.082H75.0657C78.0927 126.082 80.9869 124.964 83.2103 122.991L87.0886 124.589C82.5408 130.704 79.6615 138.027 78.8397 145.605H71.1634ZM91.2988 126.323L97.7752 128.992C100.258 130.015 101.862 132.41 101.862 135.095V145.605H83.2694C84.1182 138.6 86.9192 131.86 91.2988 126.323V126.323ZM75.0634 114.137C77.0084 114.137 78.8204 113.784 80.4938 113.144V119.523C79.0352 120.906 77.0963 121.687 75.066 121.687C75.0657 121.687 75.0651 121.687 75.0648 121.687C73.0313 121.687 71.0895 120.903 69.6385 119.525V113.149C71.3518 113.799 73.1667 114.137 75.0634 114.137ZM43.876 145.605H40.0439L43.876 141.157V145.605ZM43.902 134.393L34.2438 145.605H24.2447L14.1716 132.12L22.6428 128.629C24.4662 130.158 26.7807 131.013 29.1956 131.013H29.1974C31.6117 131.013 33.9256 130.16 35.7514 128.629L44.2823 132.144C44.0811 132.87 43.9507 133.622 43.902 134.393V134.393ZM42.6312 87.2317C46.4559 91.1048 45.2515 96.9788 43.7433 100.66C42.3019 99.2303 40.232 97.3978 37.7254 95.7935C36.151 94.7856 34.8769 93.4477 34.1081 92.0206C34.917 90.8786 35.5621 89.6411 36.0036 88.3356C36.3007 87.457 36.4864 86.5816 36.5649 85.7297C38.3925 85.3556 40.9234 85.5029 42.6312 87.2317V87.2317ZM17.5718 103.754C19.131 102.016 21.9197 99.5455 26.1496 98.006C27.9259 97.3594 29.5563 96.4403 30.9774 95.3133C32.0778 96.9158 33.5702 98.3511 35.3562 99.4945C37.6243 100.946 39.5087 102.641 40.7796 103.915C39.0848 111.129 33.1768 117.135 29.195 117.135C25.2112 117.135 19.2183 111.027 17.5718 103.754V103.754ZM29.1953 121.529C30.4642 121.529 31.7658 121.23 33.054 120.682V125.154C31.9976 126.092 30.6282 126.618 29.1974 126.618C29.1971 126.618 29.1968 126.618 29.1962 126.618C27.7683 126.618 26.4016 126.094 25.3407 125.153V120.675C26.6295 121.227 27.9303 121.529 29.1953 121.529ZM8.37578 144.87V137.946C8.37578 136.425 9.03906 135.027 10.1433 134.07L18.7595 145.605H9.11113C8.70566 145.605 8.37578 145.276 8.37578 144.87ZM48.2705 135.095C48.2705 132.41 49.8745 130.015 52.3568 128.992L58.7787 126.346C63.1308 131.886 65.9028 138.613 66.7352 145.605H48.2708V135.095H48.2705ZM106.256 145.605V135.095C106.256 134.061 106.107 133.055 105.837 132.095L112.568 129.321C112.654 134.857 113.166 140.675 116.246 145.605H106.256ZM116.946 126.042V123.506C118.229 124.116 119.529 124.459 120.8 124.459C122.072 124.459 123.374 124.118 124.659 123.502C124.659 123.507 124.658 125.824 124.659 126.052C124.659 132.646 124.657 139.451 120.803 144.465C116.947 139.459 116.946 132.647 116.946 126.047C116.946 126.045 116.946 126.043 116.946 126.042V126.042ZM141.624 144.87C141.624 145.276 141.294 145.605 140.888 145.605H125.357C128.438 140.67 128.951 134.855 129.036 129.321L138.445 133.198H138.445C140.376 133.994 141.624 135.857 141.624 137.945V144.87Z" fill="black"/>
</g>
<defs>
<clipPath id="clip0">
<rect width="150" height="150" fill="white"/>
</clipPath>
</defs>
</svg>
