<svg width="100" height="100" viewBox="0 0 100 100" fill="none" xmlns="http://www.w3.org/2000/svg">
<g clip-path="url(#clip0)">
<path d="M93.3334 16.6666H34.1667L30.3334 3.98494C29.426 1.03119 26.3102 -0.641902 23.3467 0.233272L14.8584 2.73327C13.9233 3.00986 13.0754 3.52307 12.3967 4.22327L2.83341 14.1283C2.11431 14.8798 1.61809 15.8163 1.40007 16.8333C0.425073 21.3333 -2.26659 37.6466 4.11674 58.7499C10.5001 79.8533 21.7834 92.0433 25.1001 95.275C25.8432 96.0045 26.7736 96.5144 27.7884 96.7483L41.2767 99.86C41.6938 99.9563 42.1204 100.005 42.5484 100.005C43.0923 100.005 43.6333 99.9265 44.1551 99.7733L48.8517 98.3883L52.6367 97.2716C54.0777 96.8564 55.2903 95.8776 56.0001 94.5566C56.7073 93.2579 56.8629 91.7295 56.4317 90.3149L54.3201 83.3333H93.3334C97.0153 83.3333 100 80.3485 100 76.6666V23.3333C100 19.6514 97.0153 16.6666 93.3334 16.6666V16.6666ZM67.0834 49.4999L96.4617 22.2233C96.5939 22.5786 96.6632 22.9542 96.6667 23.3333V76.6666C96.662 77.0237 96.5995 77.3778 96.4817 77.715L67.0834 49.4999ZM93.3334 19.9999C93.5225 20.0027 93.7109 20.0217 93.8967 20.0566L59.0001 52.4466C57.7216 53.6323 55.7453 53.6323 54.4667 52.4466L30.4667 30.2283L32.2351 29.7066C33.6733 29.2885 34.8833 28.3103 35.5934 26.9916C36.2997 25.6937 36.4541 24.1662 36.0217 22.7533L35.1834 19.9999H93.3334ZM26.2234 68.7183C22.7825 64.5059 20.224 59.6445 18.7001 54.4233C16.5475 47.8443 16.2539 40.7985 17.8517 34.0633C17.8862 33.9724 17.9626 33.904 18.0567 33.8799L26.7351 31.3216L46.3084 49.4349L26.2234 68.7183ZM53.0567 92.97C52.7677 93.5056 52.2751 93.9021 51.6901 94.07L49.4801 94.7216L45.4217 81.2916C45.2579 80.7115 44.7936 80.2651 44.2075 80.1242C43.6215 79.9833 43.005 80.1698 42.5953 80.6119C42.1856 81.0541 42.0466 81.683 42.2317 82.2566L46.2917 95.6666L43.2151 96.5733C42.8283 96.6882 42.4182 96.7008 42.0251 96.61L28.5367 93.4999C28.1188 93.4023 27.7358 93.1912 27.4301 92.89C24.2634 89.7983 13.4517 78.1266 7.30674 57.7866C1.16174 37.4466 3.72507 21.8333 4.65674 17.5366C4.74635 17.1243 4.94823 16.7447 5.24007 16.4399L14.7934 6.53994C15.069 6.2543 15.4133 6.04425 15.7934 5.92994L18.8951 5.01661L22.9534 18.4449C23.1657 19.1483 23.8137 19.6297 24.5484 19.6299C24.7117 19.6308 24.8741 19.6066 25.0301 19.5583C25.9108 19.292 26.4091 18.3625 26.1434 17.4816L22.0984 4.07494L24.2884 3.42994C25.4981 3.06528 26.776 3.74247 27.1534 4.94827L32.8201 23.7149C32.9941 24.2778 32.934 24.887 32.6534 25.4049C32.3636 25.9402 31.8713 26.337 31.2867 26.5066L29.0751 27.1583L28.4201 24.9916C28.137 24.1329 27.2209 23.6564 26.3553 23.9178C25.4898 24.1792 24.9905 25.0831 25.2301 25.9549L25.8784 28.1016L17.1151 30.6849C15.9136 31.036 14.9773 31.9805 14.6367 33.1849C12.8787 40.5227 13.1815 48.2034 15.5117 55.3799C17.5582 62.6641 21.5635 69.2474 27.0917 74.4133C28.0318 75.2422 29.3337 75.5259 30.5334 75.1633L39.3184 72.5733L39.9734 74.74C40.1373 75.32 40.6016 75.7664 41.1876 75.9074C41.7737 76.0483 42.3902 75.8618 42.7999 75.4196C43.2096 74.9775 43.3486 74.3486 43.1634 73.7749L42.5151 71.6283L44.7034 70.9833C45.9133 70.6214 47.1896 71.2975 47.5701 72.5016L53.2367 91.27C53.4121 91.8365 53.3501 92.4499 53.0651 92.97H53.0567ZM53.3117 79.9999L50.7584 71.5483C49.8496 68.589 46.7259 66.9149 43.7584 67.7966L29.5917 71.9733C29.49 72.0038 29.3798 71.984 29.2951 71.9199C29.0617 71.7149 28.7951 71.4599 28.4867 71.1699L48.7601 51.7033L52.2001 54.8883C54.762 57.2505 58.7082 57.2505 61.2701 54.8883L64.6367 51.7616L93.9817 79.9283C93.7685 79.9734 93.5514 79.9975 93.3334 79.9999H53.3117Z" fill="black"/>
<path d="M43.3332 26.6663H69.9998C70.9203 26.6663 71.6665 25.9202 71.6665 24.9997C71.6665 24.0792 70.9203 23.333 69.9998 23.333H43.3332C42.4127 23.333 41.6665 24.0792 41.6665 24.9997C41.6665 25.9202 42.4127 26.6663 43.3332 26.6663Z" fill="black"/>
<path d="M91.6671 36.6665C90.7467 36.6665 90.0005 37.4127 90.0005 38.3332V61.6665C90.0005 62.587 90.7467 63.3332 91.6671 63.3332C92.5876 63.3332 93.3338 62.587 93.3338 61.6665V38.3332C93.3338 37.4127 92.5876 36.6665 91.6671 36.6665Z" fill="black"/>
</g>
<defs>
<clipPath id="clip0">
<rect width="100" height="100" fill="white"/>
</clipPath>
</defs>
</svg>
