<svg width="58" height="59" viewBox="0 0 58 59" fill="none" xmlns="http://www.w3.org/2000/svg">
<path fill-rule="evenodd" clip-rule="evenodd" d="M51.9362 44.0302C51.9673 39.779 48.6047 35.9606 43.8722 35.965C39.1995 35.9693 35.8323 39.7382 35.8249 44.0121C35.8179 48.2066 39.1112 52.0767 43.8962 52.0805C48.486 52.0846 51.9436 48.3889 51.9362 44.0302ZM28.1317 43.9747C23.9917 43.9754 20.6213 47.337 20.6355 51.478C20.6494 55.5117 23.8225 58.9755 28.1481 58.9685C32.4038 58.9615 35.6082 55.6231 35.6474 51.4616C35.6858 47.3397 32.2795 43.9741 28.1317 43.9747ZM57.2057 28.2871C57.3141 24.9477 54.6082 21.6162 50.5241 21.5571C46.8572 21.5039 43.8097 24.5793 43.8043 28.2756C43.7993 31.9725 46.8121 35.0199 50.5114 35.0016C54.509 34.9816 57.3017 31.6885 57.2057 28.2871ZM12.2435 37.008C12.2513 33.7916 9.67412 31.1704 6.49178 31.1586C3.24508 31.1464 0.596567 33.7164 0.608868 36.9688C0.62117 40.2307 3.15172 42.7617 6.43295 42.8042C9.61585 42.8455 12.2358 40.2047 12.2435 37.008ZM13.9947 52.7741C16.9233 52.8751 19.8448 50.5113 19.8482 46.9197C19.8514 43.7694 17.247 41.1893 14.1223 41.1772C10.8265 41.1643 8.22704 43.7012 8.21836 46.9388C8.20959 50.2049 10.7422 52.7634 13.9947 52.7741ZM26.9507 35.2838C26.9525 32.5667 24.7594 30.3513 22.056 30.3391C19.3401 30.3269 17.0991 32.5584 17.1003 35.2737C17.1018 37.9746 19.3218 40.1903 22.0252 40.189C24.7427 40.1875 26.9489 37.9906 26.9507 35.2838ZM23.7275 26.7151C25.9723 26.7214 27.7666 24.951 27.7723 22.7241C27.778 20.501 25.9831 18.6805 23.7736 18.6685C21.5668 18.6563 19.7308 20.4758 19.7277 22.6783C19.7242 24.922 21.4951 26.7089 23.7275 26.7151ZM18.0885 27.7745C18.0867 25.5237 16.3241 23.7563 14.0854 23.7605C11.8372 23.7647 10.066 25.5657 10.0825 27.8307C10.0988 30.0433 11.8817 31.8072 14.1003 31.8051C16.3285 31.8033 18.0904 30.0226 18.0885 27.7745ZM15.7035 18.5846C15.7082 16.5569 14.1387 14.9694 12.1303 14.9707C10.1867 14.9716 8.5505 16.6287 8.56222 18.5844C8.57386 20.5203 10.1711 22.1089 12.1121 22.115C14.1491 22.1212 15.699 20.5977 15.7035 18.5846ZM4.46625 16.1134C2.96596 16.1075 1.76005 17.2889 1.74956 18.7745C1.73936 20.2257 2.95166 21.4443 4.41428 21.4527C5.90599 21.4612 7.13126 20.2588 7.13298 18.7849C7.1346 17.327 5.92878 16.1191 4.46625 16.1134ZM16.8409 16.356C16.838 17.8496 18.0333 19.0511 19.5185 19.0475C20.9542 19.0438 22.1786 17.8068 22.1808 16.3577C22.183 14.9118 20.9607 13.6756 19.5187 13.6651C18.0522 13.6544 16.8439 14.8685 16.8409 16.356ZM13.1948 13.6595C14.6997 13.6572 15.8547 12.5131 15.8576 11.0222C15.8601 9.53404 14.646 8.31125 13.1767 8.32212C11.7117 8.33309 10.5203 9.53252 10.5182 10.9993C10.516 12.5212 11.6639 13.6618 13.1948 13.6595ZM21.7171 7.40143C20.4431 7.39876 19.4763 8.36017 19.4779 9.62845C19.4794 10.8638 20.4607 11.8393 21.7008 11.8386C22.9473 11.8377 23.9114 10.8734 23.9147 9.62435C23.9178 8.37419 22.9589 7.40429 21.7171 7.40143ZM27.2854 3.67945C27.2891 2.42719 26.311 1.45109 25.043 1.44156C23.8651 1.43278 22.8563 2.4476 22.8483 3.64932C22.8401 4.88909 23.8555 5.91964 25.0783 5.91239C26.3083 5.90505 27.2819 4.91998 27.2854 3.67945ZM17.0865 4.02799C16.0899 4.03085 15.314 4.79983 15.3087 5.78976C15.3037 6.73992 16.1317 7.5623 17.0945 7.56316C18.0682 7.56401 18.8819 6.767 18.8897 5.80416C18.8979 4.80298 18.1081 4.02504 17.0865 4.02799ZM32.4664 1.29308C32.4664 0.528968 31.9424 0.00248854 31.1797 9.1997e-06C30.3935 -0.0025655 29.8342 0.535548 29.8344 1.29423C29.8344 2.04881 30.41 2.63231 31.153 2.63136C31.8945 2.63059 32.4664 2.04804 32.4664 1.29308Z" fill="#00A0C6"/>
<path fill-rule="evenodd" clip-rule="evenodd" d="M0 25.8938C0.0532106 25.7109 0.110428 25.5291 0.15887 25.345C0.644536 23.5014 2.45751 22.1873 4.3666 22.401C6.56483 22.6472 8.04471 24.2802 8.05215 26.362C8.05978 28.4 6.58791 30.1278 4.61721 30.3944C2.47534 30.6844 0.52076 29.3012 0.089545 27.1927C0.0679937 27.0868 0.0302325 26.984 9.89447e-05 26.8798C3.58529e-06 26.5511 0 26.2224 0 25.8938Z" fill="#00A0C6"/>
<path fill-rule="evenodd" clip-rule="evenodd" d="M51.9362 44.0302C51.9435 48.3889 48.4859 52.0846 43.8962 52.0806C39.1111 52.0769 35.8178 48.2067 35.8248 44.0122C35.8322 39.7383 39.1994 35.9694 43.8721 35.9651C48.6048 35.9607 51.9674 39.779 51.9362 44.0302Z" fill="#00A0C6"/>
<path fill-rule="evenodd" clip-rule="evenodd" d="M28.1317 43.9747C32.2793 43.9741 35.6857 47.3397 35.6472 51.4616C35.6081 55.6231 32.4037 58.9614 28.148 58.9685C23.8224 58.9755 20.6492 55.5117 20.6354 51.478C20.6212 47.337 23.9916 43.9754 28.1317 43.9747Z" fill="#00A0C6"/>
<path fill-rule="evenodd" clip-rule="evenodd" d="M57.2058 28.2871C57.3017 31.6885 54.509 34.9816 50.5114 35.0016C46.8122 35.0199 43.7994 31.9725 43.8043 28.2756C43.8098 24.5793 46.8573 21.5039 50.5241 21.5571C54.6083 21.6162 57.3141 24.9476 57.2058 28.2871Z" fill="#00A0C6"/>
<path fill-rule="evenodd" clip-rule="evenodd" d="M12.2435 37.0079C12.2357 40.2047 9.61583 42.8455 6.43282 42.8042C3.15151 42.7616 0.621047 40.2307 0.608746 36.9687C0.59654 33.7164 3.24505 31.1463 6.49166 31.1586C9.674 31.1705 12.2513 33.7916 12.2435 37.0079Z" fill="#00A0C6"/>
<path fill-rule="evenodd" clip-rule="evenodd" d="M13.9946 52.7741C10.7423 52.7634 8.20967 50.205 8.21834 46.9388C8.22702 43.7012 10.8265 41.1643 14.1222 41.1771C17.2471 41.1893 19.8514 43.7695 19.8482 46.9197C19.8447 50.5112 16.9233 52.875 13.9946 52.7741Z" fill="#00A0C6"/>
<path fill-rule="evenodd" clip-rule="evenodd" d="M26.9507 35.2837C26.9488 37.9906 24.7427 40.1875 22.0252 40.1888C19.3218 40.1902 17.1018 37.9745 17.1003 35.2736C17.099 32.5583 19.3401 30.3268 22.056 30.339C24.7594 30.3513 26.9525 32.5667 26.9507 35.2837Z" fill="#00A0C6"/>
<path fill-rule="evenodd" clip-rule="evenodd" d="M23.7275 26.7151C21.495 26.7089 19.7243 24.922 19.7276 22.6783C19.7308 20.4758 21.5667 18.6563 23.7735 18.6685C25.983 18.6805 27.7779 20.501 27.7722 22.7241C27.7666 24.951 25.9723 26.7215 23.7275 26.7151Z" fill="#00A0C6"/>
<path fill-rule="evenodd" clip-rule="evenodd" d="M18.0886 27.7745C18.0906 30.0226 16.3285 31.8033 14.1004 31.8051C11.8817 31.8071 10.0989 30.0433 10.0826 27.8306C10.0661 25.5658 11.8372 23.7647 14.0855 23.7605C16.3241 23.7563 18.0868 25.5237 18.0886 27.7745Z" fill="#00A0C6"/>
<path fill-rule="evenodd" clip-rule="evenodd" d="M15.7035 18.5846C15.699 20.5977 14.1491 22.1212 12.112 22.1149C10.171 22.1089 8.57377 20.5202 8.56214 18.5843C8.55041 16.6287 10.1866 14.9715 12.1302 14.9706C14.1388 14.9694 15.7082 16.5569 15.7035 18.5846Z" fill="#00A0C6"/>
<path fill-rule="evenodd" clip-rule="evenodd" d="M4.4663 16.1134C5.92883 16.1191 7.13466 17.327 7.13294 18.785C7.13122 20.2589 5.90595 21.4613 4.41424 21.4528C2.95162 21.4444 1.73931 20.2258 1.74951 18.7746C1.7601 17.2889 2.96601 16.1076 4.4663 16.1134Z" fill="#00A0C6"/>
<path fill-rule="evenodd" clip-rule="evenodd" d="M16.8408 16.356C16.8439 14.8686 18.0522 13.6544 19.5188 13.665C20.9606 13.6755 22.183 14.9117 22.1809 16.3576C22.1787 17.8067 20.9543 19.0437 19.5185 19.0474C18.0333 19.051 16.838 17.8495 16.8408 16.356Z" fill="#00A0C6"/>
<path fill-rule="evenodd" clip-rule="evenodd" d="M13.1948 13.6595C11.6638 13.6618 10.5161 12.5212 10.5183 10.9993C10.5204 9.53252 11.7117 8.33309 13.1767 8.32212C14.646 8.31125 15.8602 9.53405 15.8576 11.0222C15.8548 12.513 14.6997 13.6571 13.1948 13.6595Z" fill="#00A0C6"/>
<path fill-rule="evenodd" clip-rule="evenodd" d="M21.7171 7.40143C22.9589 7.40429 23.9178 8.3742 23.9146 9.62426C23.9113 10.8734 22.9472 11.8376 21.7008 11.8385C20.4606 11.8392 19.4793 10.8637 19.4778 9.62836C19.4763 8.36018 20.4431 7.39876 21.7171 7.40143Z" fill="#00A0C6"/>
<path fill-rule="evenodd" clip-rule="evenodd" d="M27.2854 3.67945C27.2819 4.91998 26.3083 5.90504 25.0783 5.91248C23.8555 5.91973 22.8401 4.88918 22.8483 3.64941C22.8563 2.44759 23.8652 1.43278 25.043 1.44165C26.311 1.45109 27.2891 2.42719 27.2854 3.67945Z" fill="#00A0C6"/>
<path fill-rule="evenodd" clip-rule="evenodd" d="M17.0865 4.02799C18.1081 4.02504 18.8979 4.80288 18.8897 5.80406C18.882 6.76691 18.0683 7.56402 17.0946 7.56306C16.1318 7.5623 15.3037 6.73982 15.3088 5.78966C15.3139 4.79983 16.0899 4.03085 17.0865 4.02799Z" fill="#00A0C6"/>
<path fill-rule="evenodd" clip-rule="evenodd" d="M32.4664 1.29308C32.4664 2.04804 31.8946 2.63059 31.153 2.63145C30.4101 2.63231 29.8345 2.0488 29.8345 1.29432C29.8342 0.535639 30.3936 -0.00247395 31.1797 0.000100752C31.9423 0.00248474 32.4664 0.528964 32.4664 1.29308Z" fill="#00A0C6"/>
</svg>
