<svg width="100" height="100" viewBox="0 0 100 100" fill="none" xmlns="http://www.w3.org/2000/svg">
<path d="M59.5703 50C59.5703 55.2856 55.2856 59.5703 50 59.5703C44.7144 59.5703 40.4297 55.2856 40.4297 50C40.4297 44.7144 44.7144 40.4297 50 40.4297C55.2856 40.4297 59.5703 44.7144 59.5703 50Z" fill="black"/>
<path d="M72.3817 33.0672C71.9217 31.8205 71.1877 30.6921 70.234 29.7659C69.3078 28.8123 68.1802 28.0783 66.9328 27.6183C65.9211 27.2253 64.4014 26.7577 61.6021 26.6302C58.574 26.4922 57.6661 26.4624 50.0001 26.4624C42.3333 26.4624 41.4254 26.4914 38.3981 26.6295C35.5989 26.7577 34.0783 27.2253 33.0674 27.6183C31.82 28.0783 30.6917 28.8123 29.7662 29.7659C28.8125 30.6921 28.0786 31.8198 27.6178 33.0672C27.2249 34.0788 26.7572 35.5994 26.6298 38.3986C26.4917 41.4259 26.4619 42.3338 26.4619 50.0006C26.4619 57.6666 26.4917 58.5745 26.6298 61.6026C26.7572 64.4019 27.2249 65.9216 27.6178 66.9333C28.0786 68.1807 28.8118 69.3083 29.7654 70.2345C30.6917 71.1882 31.8193 71.9221 33.0667 72.3822C34.0783 72.7759 35.5989 73.2436 38.3981 73.371C41.4254 73.5091 42.3326 73.5381 49.9994 73.5381C57.6669 73.5381 58.5748 73.5091 61.6014 73.371C64.4006 73.2436 65.9211 72.7759 66.9328 72.3822C69.4368 71.4163 71.4158 69.4373 72.3817 66.9333C72.7746 65.9216 73.2423 64.4019 73.3705 61.6026C73.5086 58.5745 73.5376 57.6666 73.5376 50.0006C73.5376 42.3338 73.5086 41.4259 73.3705 38.3986C73.2431 35.5994 72.7754 34.0788 72.3817 33.0672V33.0672ZM50.0001 64.7429C41.8573 64.7429 35.2563 58.1427 35.2563 49.9998C35.2563 41.857 41.8573 35.2568 50.0001 35.2568C58.1422 35.2568 64.7432 41.857 64.7432 49.9998C64.7432 58.1427 58.1422 64.7429 50.0001 64.7429ZM65.326 38.1194C63.4233 38.1194 61.8806 36.5767 61.8806 34.6739C61.8806 32.7711 63.4233 31.2285 65.326 31.2285C67.2288 31.2285 68.7715 32.7711 68.7715 34.6739C68.7707 36.5767 67.2288 38.1194 65.326 38.1194Z" fill="black"/>
<path d="M50 0C22.39 0 0 22.39 0 50C0 77.61 22.39 100 50 100C77.61 100 100 77.61 100 50C100 22.39 77.61 0 50 0ZM78.5378 61.837C78.3989 64.8933 77.9129 66.98 77.2034 68.8065C75.7118 72.6631 72.6631 75.7118 68.8065 77.2034C66.9807 77.9129 64.8933 78.3981 61.8378 78.5378C58.7761 78.6774 57.798 78.7109 50.0008 78.7109C42.2028 78.7109 41.2254 78.6774 38.163 78.5378C35.1074 78.3981 33.02 77.9129 31.1943 77.2034C29.2778 76.4824 27.5429 75.3525 26.1086 73.8914C24.6483 72.4579 23.5184 70.7222 22.7974 68.8065C22.0879 66.9807 21.6019 64.8933 21.463 61.8378C21.3219 58.7753 21.2891 57.7972 21.2891 50C21.2891 42.2028 21.3219 41.2247 21.4622 38.163C21.6011 35.1067 22.0863 33.02 22.7959 31.1935C23.5168 29.2778 24.6475 27.5421 26.1086 26.1086C27.5421 24.6475 29.2778 23.5176 31.1935 22.7966C33.02 22.0871 35.1067 21.6019 38.163 21.4622C41.2247 21.3226 42.2028 21.2891 50 21.2891C57.7972 21.2891 58.7753 21.3226 61.837 21.463C64.8933 21.6019 66.98 22.0871 68.8065 22.7959C70.7222 23.5168 72.4579 24.6475 73.8922 26.1086C75.3525 27.5429 76.4832 29.2778 77.2034 31.1935C77.9137 33.02 78.3989 35.1067 78.5385 38.163C78.6781 41.2247 78.7109 42.2028 78.7109 50C78.7109 57.7972 78.6781 58.7753 78.5378 61.837V61.837Z" fill="black"/>
</svg>
