<svg width="150" height="150" viewBox="0 0 150 150" fill="none" xmlns="http://www.w3.org/2000/svg">
<path d="M42.3984 102.349C46.5211 99.3656 49.2188 94.5281 49.2188 89.0625C49.2188 80.018 41.8594 72.6562 32.8125 72.6562C23.7656 72.6562 16.4062 80.018 16.4062 89.0625C16.4062 94.5281 19.1039 99.3656 23.2266 102.349C11.1141 106.378 2.34375 117.802 2.34375 131.25V147.656H63.2812V131.25C63.2812 117.802 54.5109 106.378 42.3984 102.349ZM21.0938 89.0625C21.0938 82.6008 26.3508 77.3438 32.8125 77.3438C39.2742 77.3438 44.5312 82.6008 44.5312 89.0625C44.5312 95.5242 39.2742 100.781 32.8125 100.781C26.3508 100.781 21.0938 95.5242 21.0938 89.0625ZM24.6094 131.25H21.0938V121.875H35.1562V142.969H32.0203C32.5266 141.902 32.8125 140.709 32.8125 139.453C32.8125 134.93 29.1328 131.25 24.6094 131.25V131.25ZM58.5938 142.969H49.2188V121.875H44.5312V142.969H39.8438V117.188H16.4062V131.25H11.7188V135.938H24.6094C26.5477 135.938 28.125 137.515 28.125 139.453C28.125 141.391 26.5477 142.969 24.6094 142.969H7.03125V131.25C7.03125 117.035 18.5977 105.469 32.8125 105.469C47.0273 105.469 58.5938 117.035 58.5938 131.25V142.969Z" fill="black"/>
<path d="M126.773 102.349C130.896 99.3656 133.594 94.5281 133.594 89.0625C133.594 80.018 126.234 72.6562 117.188 72.6562C108.141 72.6562 100.781 80.018 100.781 89.0625C100.781 94.5281 103.479 99.3656 107.602 102.349C95.4891 106.378 86.7188 117.802 86.7188 131.25V147.656H147.656V131.25C147.656 117.802 138.886 106.378 126.773 102.349ZM105.469 89.0625C105.469 82.6008 110.726 77.3438 117.188 77.3438C123.649 77.3438 128.906 82.6008 128.906 89.0625C128.906 95.5242 123.649 100.781 117.188 100.781C110.726 100.781 105.469 95.5242 105.469 89.0625ZM108.984 131.25H105.469V121.875H119.531V142.969H116.395C116.902 141.902 117.188 140.709 117.188 139.453C117.188 134.93 113.508 131.25 108.984 131.25ZM142.969 142.969H133.594V121.875H128.906V142.969H124.219V117.188H100.781V131.25H96.0938V135.938H108.984C110.923 135.938 112.5 137.515 112.5 139.453C112.5 141.391 110.923 142.969 108.984 142.969H91.4062V131.25C91.4062 117.035 102.973 105.469 117.188 105.469C131.402 105.469 142.969 117.035 142.969 131.25V142.969Z" fill="black"/>
<path d="M60.8532 44.4422C62.3742 45.593 63.2813 47.5125 63.2813 49.5773V51.5625C63.2813 58.0242 68.5383 63.2812 75 63.2812C81.4618 63.2812 86.7188 58.0242 86.7188 51.5625V49.7531C86.7188 47.5945 87.7266 45.5648 89.4844 44.182C95.175 39.7055 98.4375 33 98.4375 25.7812C98.4375 19.3851 95.9086 13.4133 91.3196 8.9578C86.7305 4.50702 80.7117 2.17265 74.2782 2.35312C61.7086 2.7328 51.518 13.2797 51.5625 25.8656C51.5883 33.2156 54.975 39.9867 60.8532 44.4422V44.4422ZM82.0313 51.5625C82.0313 55.4391 78.8766 58.5937 75 58.5937C71.1235 58.5937 67.9688 55.4391 67.9688 51.5625V49.5773C67.9688 49.4555 67.9524 49.3383 67.9477 49.2187H82.0618C82.0547 49.3969 82.0313 49.5726 82.0313 49.7531V51.5625ZM75 30.4687C72.4149 30.4687 70.3125 28.3664 70.3125 25.7812C70.3125 23.1961 72.4149 21.0937 75 21.0937C77.5852 21.0937 79.6875 23.1961 79.6875 25.7812C79.6875 28.3664 77.5852 30.4687 75 30.4687ZM74.4188 7.04062C74.6133 7.03358 74.8078 7.03124 75.0024 7.03124C79.9078 7.03124 84.5227 8.89687 88.0547 12.3234C91.7274 15.8859 93.75 20.6648 93.75 25.7812C93.75 31.5539 91.1391 36.9164 86.5875 40.4953C85.1696 41.6109 84.0539 42.9914 83.2782 44.5312H77.3438V34.8234C81.375 33.7758 84.375 30.1383 84.375 25.7812C84.375 20.6109 80.1703 16.4062 75 16.4062C69.8297 16.4062 65.625 20.6109 65.625 25.7812C65.625 30.1383 68.625 33.7758 72.6563 34.8234V44.5312H66.8039C66.068 43.0289 65.0086 41.7094 63.6821 40.7062C58.9781 37.1414 56.2688 31.725 56.25 25.8469C56.2149 15.7781 64.3641 7.34296 74.4188 7.04062Z" fill="black"/>
<path d="M122.512 52.8656C120.715 54.1406 119.531 56.2265 119.531 58.5937C119.531 62.4703 122.686 65.625 126.563 65.625C130.439 65.625 133.594 62.4703 133.594 58.5937C133.594 54.8742 130.683 51.8531 127.024 51.6093C124.322 41.5242 118.826 32.5171 110.965 25.4695L107.836 28.9617C115.027 35.407 120.049 43.6429 122.512 52.8656V52.8656ZM128.906 58.5937C128.906 59.8875 127.854 60.9375 126.563 60.9375C125.271 60.9375 124.219 59.8875 124.219 58.5937C124.219 57.3 125.271 56.25 126.563 56.25C127.854 56.25 128.906 57.3 128.906 58.5937Z" fill="black"/>
<path d="M108.077 23.0578C106.868 22.118 105.6 21.2156 104.304 20.3719L101.752 24.3047C102.935 25.0734 104.095 25.8984 105.197 26.7563L108.077 23.0578Z" fill="black"/>
<path d="M23.4375 65.625C27.3141 65.625 30.4688 62.4703 30.4688 58.5937C30.4688 56.2265 29.2852 54.1406 27.4875 52.8656C29.9508 43.6429 34.9711 35.407 42.1617 28.9617L39.0328 25.4695C31.1719 32.5171 25.6781 41.5242 22.9734 51.6093C19.3172 51.8531 16.4062 54.8742 16.4062 58.5937C16.4062 62.4703 19.5609 65.625 23.4375 65.625V65.625ZM23.4375 56.25C24.7289 56.25 25.7812 57.3 25.7812 58.5937C25.7812 59.8875 24.7289 60.9375 23.4375 60.9375C22.1461 60.9375 21.0938 59.8875 21.0938 58.5937C21.0938 57.3 22.1461 56.25 23.4375 56.25Z" fill="black"/>
<path d="M48.2461 24.3047L45.6937 20.3719C44.3976 21.2133 43.1297 22.1156 41.9203 23.0578L44.8008 26.7563C45.9047 25.8984 47.0648 25.0734 48.2461 24.3047V24.3047Z" fill="black"/>
<path d="M91.4063 86.7188C95.2828 86.7188 98.4375 83.5641 98.4375 79.6875C98.4375 75.8109 95.2828 72.6562 91.4063 72.6562C88.3547 72.6562 85.7766 74.6227 84.8063 77.3438H65.1914C64.2211 74.6227 61.643 72.6562 58.5914 72.6562C54.7149 72.6562 51.5602 75.8109 51.5602 79.6875C51.5602 83.5641 54.7149 86.7188 58.5914 86.7188C61.643 86.7188 64.2211 84.7523 65.1914 82.0312H84.8063C85.7766 84.7523 88.3547 86.7188 91.4063 86.7188ZM91.4063 77.3438C92.6977 77.3438 93.75 78.3938 93.75 79.6875C93.75 80.9812 92.6977 82.0312 91.4063 82.0312C90.1149 82.0312 89.0625 80.9812 89.0625 79.6875C89.0625 78.3938 90.1149 77.3438 91.4063 77.3438ZM58.5938 82.0312C57.3024 82.0312 56.25 80.9812 56.25 79.6875C56.25 78.3938 57.3024 77.3438 58.5938 77.3438C59.8852 77.3438 60.9375 78.3938 60.9375 79.6875C60.9375 80.9812 59.8852 82.0312 58.5938 82.0312Z" fill="black"/>
</svg>
