<svg width="149" height="153" viewBox="0 0 149 153" fill="none" xmlns="http://www.w3.org/2000/svg">
<path fill-rule="evenodd" clip-rule="evenodd" d="M135.334 114.294C135.414 103.279 126.702 93.3852 114.44 93.3966C102.332 93.4077 93.6076 103.173 93.5886 114.247C93.5703 125.115 102.104 135.143 114.502 135.153C126.394 135.163 135.353 125.588 135.334 114.294ZM73.655 114.15C62.9279 114.152 54.195 122.862 54.2318 133.592C54.2679 144.043 62.4896 153.018 73.6975 153C84.7243 152.982 93.027 144.332 93.1285 133.549C93.2281 122.869 84.4021 114.149 73.655 114.15ZM148.988 73.5027C149.268 64.8499 142.257 56.2179 131.675 56.0649C122.174 55.927 114.278 63.8954 114.264 73.4728C114.251 83.0517 122.057 90.9477 131.642 90.9003C142 90.8484 149.236 82.3159 148.988 73.5027ZM32.4876 96.0989C32.5079 87.7651 25.8302 80.9735 17.5846 80.9429C9.17219 80.9113 2.30973 87.5704 2.3416 95.9974C2.37348 104.449 8.9303 111.007 17.4322 111.117C25.6793 111.224 32.4676 104.382 32.4876 96.0989ZM37.025 136.95C44.6134 137.212 52.183 131.087 52.1919 121.781C52.2003 113.618 45.452 106.933 37.3556 106.902C28.8162 106.868 22.0808 113.442 22.0583 121.83C22.0355 130.293 28.5978 136.922 37.025 136.95ZM70.5949 91.6314C70.5996 84.5913 64.9172 78.8511 57.9124 78.8195C50.8755 78.7878 45.0688 84.5698 45.072 91.6055C45.0757 98.6036 50.828 104.345 57.8326 104.341C64.8739 104.337 70.5902 98.6451 70.5949 91.6314ZM62.2435 69.4296C68.0598 69.4459 72.7089 64.8586 72.7237 59.0885C72.7386 53.3285 68.0877 48.6114 62.3628 48.5803C56.6448 48.5487 51.8878 53.263 51.8796 58.9699C51.8707 64.7835 56.459 69.4135 62.2435 69.4296ZM47.6325 72.1744C47.6278 66.3425 43.0608 61.7631 37.2603 61.774C31.4348 61.7849 26.8457 66.4513 26.8885 72.32C26.9305 78.053 31.5502 82.6235 37.2988 82.6181C43.0721 82.6134 47.6375 77.9994 47.6325 72.1744ZM41.4527 48.3629C41.4648 43.1089 37.3984 38.9957 32.1943 38.9989C27.1583 39.0014 22.9189 43.295 22.9492 48.3624C22.9794 53.3784 27.118 57.4945 32.1471 57.5103C37.4253 57.5264 41.4411 53.579 41.4527 48.3629ZM12.3363 41.9597C8.44898 41.9447 5.32439 45.0055 5.29721 48.8548C5.27077 52.6151 8.41192 55.7726 12.2017 55.7944C16.0668 55.8163 19.2415 52.7009 19.246 48.8817C19.2502 45.1043 16.1258 41.9746 12.3363 41.9597ZM44.3997 42.5883C44.3923 46.4584 47.4895 49.5716 51.3375 49.5622C55.0576 49.5526 58.2301 46.3474 58.2358 42.5928C58.2415 38.8465 55.0744 35.6433 51.3383 35.6161C47.5384 35.5885 44.4076 38.7343 44.3997 42.5883ZM34.9525 35.6016C38.8517 35.5956 41.8446 32.6311 41.852 28.7683C41.8585 24.9123 38.7126 21.744 34.9056 21.7721C31.1096 21.8005 28.0228 24.9083 28.0174 28.709C28.0117 32.6521 30.9858 35.6075 34.9525 35.6016ZM57.0342 19.3865C53.7332 19.3796 51.2283 21.8707 51.2325 25.1569C51.2362 28.3579 53.7789 30.8853 56.9922 30.8835C60.2219 30.8813 62.7199 28.3826 62.7285 25.1463C62.7364 21.907 60.252 19.394 57.0342 19.3865ZM71.4621 9.74268C71.4718 6.49799 68.9374 3.96886 65.652 3.94415C62.6 3.92142 59.9861 6.55087 59.9654 9.6646C59.9441 12.8769 62.5751 15.5471 65.7434 15.5284C68.9305 15.5093 71.453 12.957 71.4621 9.74268ZM45.0362 10.6458C42.4539 10.6532 40.4434 12.6456 40.4298 15.2106C40.4167 17.6725 42.5621 19.8034 45.0569 19.8056C47.5799 19.8078 49.6882 17.7427 49.7083 15.2479C49.7295 12.6538 47.6832 10.6381 45.0362 10.6458ZM84.8863 3.55944C84.8863 1.57957 83.5286 0.215432 81.5525 0.209008C79.5155 0.202337 78.0661 1.59662 78.0669 3.56241C78.0669 5.51757 79.5583 7.02947 81.4833 7.027C83.4046 7.02502 84.8863 5.51559 84.8863 3.55944Z" fill="white"/>
<path fill-rule="evenodd" clip-rule="evenodd" d="M0.763977 67.3015C0.901849 66.8276 1.0501 66.3567 1.17562 65.8796C2.43401 61.1027 7.13154 57.6977 12.0781 58.2514C17.7739 58.8894 21.6083 63.1206 21.6276 68.5147C21.6474 73.7953 17.8337 78.272 12.7275 78.9628C7.17774 79.7142 2.1133 76.1303 0.995994 70.667C0.940153 70.3928 0.842311 70.1264 0.764233 69.8563C0.763986 69.0047 0.763977 68.153 0.763977 67.3015Z" fill="white"/>
<path fill-rule="evenodd" clip-rule="evenodd" d="M135.334 114.294C135.353 125.588 126.394 135.164 114.502 135.153C102.103 135.144 93.57 125.116 93.5883 114.248C93.6073 103.174 102.332 93.4081 114.439 93.397C126.702 93.3856 135.415 103.279 135.334 114.294Z" fill="white"/>
<path fill-rule="evenodd" clip-rule="evenodd" d="M73.655 114.15C84.4018 114.149 93.2281 122.869 93.1282 133.549C93.0269 144.332 84.724 152.982 73.6972 153C62.4893 153.018 54.2674 144.043 54.2316 133.592C54.195 122.862 62.9279 114.152 73.655 114.15Z" fill="white"/>
<path fill-rule="evenodd" clip-rule="evenodd" d="M148.988 73.5026C149.236 82.3158 142 90.8485 131.642 90.9001C122.057 90.9476 114.251 83.0516 114.264 73.4727C114.278 63.8953 122.174 55.9269 131.675 56.0648C142.257 56.2177 149.268 64.8498 148.988 73.5026Z" fill="white"/>
<path fill-rule="evenodd" clip-rule="evenodd" d="M32.4876 96.099C32.4676 104.382 25.6793 111.224 17.4319 111.117C8.92982 111.007 2.37324 104.449 2.34136 95.9975C2.30974 87.5705 9.1722 80.9111 17.5844 80.943C25.83 80.9739 32.5079 87.7652 32.4876 96.099Z" fill="white"/>
<path fill-rule="evenodd" clip-rule="evenodd" d="M37.025 136.95C28.598 136.922 22.0358 130.293 22.0583 121.83C22.0808 113.442 28.8162 106.868 37.3556 106.901C45.4523 106.933 52.2003 113.618 52.1919 121.781C52.1828 131.087 44.6134 137.211 37.025 136.95Z" fill="white"/>
<path fill-rule="evenodd" clip-rule="evenodd" d="M70.5949 91.6312C70.5899 98.6449 64.8739 104.337 57.8326 104.341C50.828 104.344 45.0757 98.6031 45.072 91.605C45.0685 84.5693 50.8755 78.7874 57.9124 78.819C64.9172 78.8509 70.5996 84.5911 70.5949 91.6312Z" fill="white"/>
<path fill-rule="evenodd" clip-rule="evenodd" d="M62.2435 69.4295C56.4588 69.4135 51.8707 64.7834 51.8794 58.9698C51.8875 53.2629 56.6446 48.5486 62.3626 48.5802C68.0875 48.6114 72.7383 53.3284 72.7235 59.0884C72.7089 64.8585 68.0598 69.4461 62.2435 69.4295Z" fill="white"/>
<path fill-rule="evenodd" clip-rule="evenodd" d="M47.6325 72.1744C47.6377 77.9993 43.0721 82.6134 37.2988 82.618C31.5502 82.6232 26.9307 78.053 26.8885 72.3199C26.8457 66.4515 31.4348 61.7848 37.2603 61.7739C43.0608 61.7631 47.6278 66.3425 47.6325 72.1744Z" fill="white"/>
<path fill-rule="evenodd" clip-rule="evenodd" d="M41.4527 48.3627C41.4411 53.5789 37.4253 57.5262 32.1469 57.5099C27.1178 57.4944 22.9791 53.378 22.949 48.362C22.9186 43.2948 27.158 39.001 32.1941 38.9985C37.3984 38.9956 41.4648 43.1088 41.4527 48.3627Z" fill="white"/>
<path fill-rule="evenodd" clip-rule="evenodd" d="M12.3363 41.96C16.1258 41.9748 19.2502 45.1046 19.2457 48.8823C19.2413 52.7014 16.0665 55.8169 12.2014 55.7949C8.41168 55.7732 5.27051 52.6157 5.29695 48.8553C5.32438 45.0058 8.44898 41.9452 12.3363 41.96Z" fill="white"/>
<path fill-rule="evenodd" clip-rule="evenodd" d="M44.3997 42.5883C44.4076 38.7346 47.5384 35.5885 51.3385 35.6159C55.0744 35.6431 58.2415 38.8463 58.2361 42.5925C58.2304 46.3472 55.0578 49.5523 51.3378 49.562C47.4895 49.5714 44.3923 46.4581 44.3997 42.5883Z" fill="white"/>
<path fill-rule="evenodd" clip-rule="evenodd" d="M34.9525 35.6016C30.9856 35.6075 28.0117 32.6522 28.0174 28.709C28.0228 24.9084 31.1096 21.8006 34.9056 21.7722C38.7126 21.744 41.8587 24.9123 41.852 28.7683C41.8446 32.6309 38.8517 35.5954 34.9525 35.6016Z" fill="white"/>
<path fill-rule="evenodd" clip-rule="evenodd" d="M57.0342 19.3867C60.252 19.3941 62.7364 21.9072 62.7282 25.1462C62.7196 28.3828 60.2216 30.8812 56.992 30.8835C53.7787 30.8852 51.236 28.3578 51.2323 25.1568C51.2283 21.8709 53.7332 19.3798 57.0342 19.3867Z" fill="white"/>
<path fill-rule="evenodd" clip-rule="evenodd" d="M71.4621 9.74277C71.453 12.9571 68.9305 15.5094 65.7434 15.5287C62.5751 15.5475 59.9441 12.8773 59.9654 9.66493C59.9861 6.55096 62.6003 3.92151 65.652 3.94449C68.9374 3.96895 71.4718 6.49808 71.4621 9.74277Z" fill="white"/>
<path fill-rule="evenodd" clip-rule="evenodd" d="M45.0362 10.646C47.6832 10.6384 49.7297 12.6538 49.7085 15.2479C49.6885 17.7427 47.5801 19.8081 45.0572 19.8056C42.5624 19.8036 40.417 17.6725 40.4301 15.2106C40.4432 12.6459 42.4539 10.6534 45.0362 10.646Z" fill="white"/>
<path fill-rule="evenodd" clip-rule="evenodd" d="M84.8863 3.55968C84.8863 5.51583 83.4048 7.02526 81.4833 7.02748C79.5583 7.02971 78.0669 5.51781 78.0669 3.5629C78.0661 1.59711 79.5155 0.202825 81.5525 0.209496C83.5284 0.215674 84.8863 1.57981 84.8863 3.55968Z" fill="white"/>
</svg>
