<svg width="151" height="151" viewBox="0 0 151 151" fill="none" xmlns="http://www.w3.org/2000/svg">
<path d="M27.2935 54.5871C42.3431 54.5871 54.5871 42.3431 54.5871 27.2935C54.5871 12.244 42.3431 0 27.2935 0C12.244 0 0 12.244 0 27.2935C0 42.3431 12.244 54.5871 27.2935 54.5871ZM27.2935 5.89844C39.0907 5.89844 48.6887 15.4964 48.6887 27.2935C48.6887 39.0907 39.0907 48.6887 27.2935 48.6887C15.4964 48.6887 5.89844 39.0907 5.89844 27.2935C5.89844 15.4964 15.4964 5.89844 27.2935 5.89844Z" fill="black"/>
<path d="M29.6403 33.7762C30.216 34.3498 30.9692 34.6365 31.7225 34.6365C32.4786 34.6365 33.2354 34.3475 33.8114 33.7694C34.961 32.6157 34.958 30.7483 33.8046 29.5984L30.2632 26.0687V12.9766C30.2632 11.348 28.9425 10.0273 27.314 10.0273C25.6854 10.0273 24.3647 11.348 24.3647 12.9766V27.2935C24.3647 28.0774 24.6771 28.8292 25.2318 29.3825L29.6403 33.7762Z" fill="black"/>
<path d="M148.051 97.914H129.899C127.404 94.3649 123.655 91.851 119.379 90.9161L106.413 88.081C111.719 84.5024 115.216 78.4365 115.216 71.5689V64.3678V61.0361V60.2864C115.216 49.3118 106.287 40.3833 95.3126 40.3833C84.3379 40.3833 75.4095 49.3118 75.4095 60.2864V61.0361V64.3678V71.5689C75.4095 78.4276 78.8969 84.4874 84.1916 88.0677L71.234 90.9105C70.6804 91.032 70.1363 91.1809 69.6016 91.3535V66.9472C69.6016 65.3187 68.2809 63.998 66.6523 63.998H46.5977C44.9691 63.998 43.6484 65.3187 43.6484 66.9472C43.6484 68.5758 44.9691 69.8964 46.5977 69.8964H63.7031V111.185H43.6484V96.4394C43.6484 91.5608 39.6794 87.5917 34.8008 87.5917C29.9222 87.5917 25.9531 91.5608 25.9531 96.4394V111.185H5.89844V69.8964H23.0039C24.6325 69.8964 25.9531 68.5758 25.9531 66.9472C25.9531 65.3187 24.6325 63.998 23.0039 63.998H2.94922C1.32066 63.998 0 65.3187 0 66.9472V114.135C0 115.763 1.32066 117.084 2.94922 117.084H25.9531V122.687H25.6582C20.6168 122.687 16.5156 126.789 16.5156 131.83V133.305H2.94922C1.32066 133.305 0 134.625 0 136.254V148.051C0 149.679 1.32066 151 2.94922 151H148.051C149.679 151 151 149.679 151 148.051V136.254V124.457V112.66V100.863C151 99.2347 149.679 97.914 148.051 97.914ZM130.113 133.305H113.25V127.406H145.102V133.305H130.113ZM145.102 121.508H113.25V115.609H145.102V121.508ZM145.102 109.711H113.25V103.812H128.254C128.263 103.812 128.272 103.814 128.28 103.814C128.289 103.814 128.299 103.812 128.308 103.812H145.102V109.711ZM81.3076 60.2867C81.3076 52.5645 87.5903 46.282 95.3123 46.282C102.666 46.282 108.713 51.9782 109.274 59.1899L102.419 55.1621C101.177 54.4322 99.5895 54.7068 98.6643 55.8107C95.678 59.3748 91.2981 61.4192 86.648 61.4192H81.3079V61.0367V60.2867H81.3076ZM81.3076 67.3173H86.648C92.1999 67.3173 97.4717 65.2001 101.455 61.4366L109.317 66.056V71.5692C109.317 79.2915 103.034 85.5739 95.3126 85.5739C87.5906 85.5739 81.3079 79.2912 81.3079 71.5692V67.3173H81.3076ZM99.9325 90.9252L95.2683 103.399L90.5956 90.9028C92.1085 91.2721 93.6872 91.4723 95.3123 91.4723C96.9031 91.4723 98.4488 91.2794 99.9325 90.9252ZM66.6523 117.084C68.2809 117.084 69.6016 115.763 69.6016 114.135V97.7303C70.5114 97.2507 71.4814 96.8951 72.4977 96.6721L85.3976 93.842L92.5061 112.852C92.937 114.004 94.0379 114.768 95.2683 114.768C96.4987 114.768 97.5997 114.004 98.0306 112.851L105.139 93.8405L118.119 96.6786C119.258 96.9275 120.34 97.3492 121.334 97.9137H110.301C108.672 97.9137 107.352 99.2344 107.352 100.863V112.66V124.457V133.304H63.461V117.084H66.6523V117.084ZM57.5626 117.084V133.305H53.0859V131.83C53.0859 126.789 48.9848 122.687 43.9434 122.687H43.6484V117.084H57.5626ZM31.8516 96.4394C31.8516 94.8132 33.1746 93.4902 34.8008 93.4902C36.427 93.4902 37.75 94.8132 37.75 96.4394V122.687H31.8516V96.4394ZM22.4141 131.83C22.4141 130.041 23.8695 128.586 25.6582 128.586H28.9023H40.6992H43.9434C45.7321 128.586 47.1875 130.041 47.1875 131.83V133.305H22.4141V131.83ZM145.102 145.102H5.89844V139.203H145.102V145.102Z" fill="black"/>
<path d="M32.7157 64.8622C32.1671 65.4107 31.8516 66.1716 31.8516 66.9473C31.8516 67.7229 32.1668 68.4838 32.7157 69.0321C33.2642 69.5806 34.0251 69.8965 34.8008 69.8965C35.5764 69.8965 36.3373 69.5809 36.8856 69.0321C37.4344 68.4838 37.75 67.7229 37.75 66.9473C37.75 66.1716 37.4344 65.4107 36.8856 64.8622C36.3373 64.3136 35.5764 63.998 34.8008 63.998C34.0251 63.998 33.2642 64.3133 32.7157 64.8622Z" fill="black"/>
</svg>
