<svg width="150" height="150" viewBox="0 0 150 150" fill="none" xmlns="http://www.w3.org/2000/svg">
<g clip-path="url(#clip0)">
<path d="M118.783 119.588C117.507 118.613 115.684 118.857 114.709 120.133C113.734 121.408 113.978 123.232 115.253 124.207L120.221 128.004C120.746 128.405 121.367 128.601 121.984 128.601C122.779 128.601 123.569 128.276 124.14 127.646L133.635 117.162C134.712 115.972 134.622 114.134 133.432 113.056C132.242 111.979 130.403 112.07 129.326 113.26L121.626 121.761L118.783 119.588Z" fill="black"/>
<path d="M149.646 104.072C149.613 102.59 148.47 101.371 146.994 101.242C140.079 100.637 131.569 95.9922 125.314 89.4087C124.766 88.8314 124.004 88.5044 123.208 88.5041C123.207 88.5041 123.207 88.5041 123.207 88.5041C122.411 88.5041 121.65 88.8306 121.101 89.4073C118.293 92.3585 115.034 94.9185 111.671 96.9012C105.77 90.3133 98.5063 85.4596 89.9933 82.4043C89.9192 82.3743 89.8442 82.3476 89.7674 82.3237C89.1044 82.0889 88.4335 81.8648 87.7554 81.6514C94.9549 74.4711 99.7975 65.0352 99.7975 56.5704V52.0035C103.201 50.5217 105.588 47.1248 105.588 43.1795C105.588 39.0812 103.008 35.5759 99.3883 34.1967C97.8942 19.6916 87.6749 7.4983 73.6372 3.46429C73.2224 1.48856 71.467 0 69.3701 0H58.8368C56.8143 0 55.1141 1.38595 54.6234 3.25703C47.7184 5.09847 41.4113 9.029 36.6826 14.4937C31.8829 20.0404 28.8983 26.9673 28.1402 34.1981C24.5186 35.5783 21.9383 39.0827 21.9383 43.1798C21.9383 47.1266 24.3285 50.5243 27.7364 52.0053V56.5707C27.7364 65.0276 32.58 74.467 39.7792 81.6523C39.1208 81.8592 38.4688 82.0758 37.8244 82.3031C37.6976 82.3392 37.5744 82.3836 37.4543 82.4362C27.9259 85.8735 19.971 91.5632 13.7412 99.4205C7.74977 106.978 3.49048 116.31 1.08194 127.16C0.22473 131.038 -0.419991 135.911 2.22401 139.203C4.80667 142.419 9.42785 142.831 13.1657 142.831H32.1803C33.7857 142.831 35.0871 141.529 35.0871 139.924C35.0871 138.319 33.7857 137.017 32.1803 137.017H13.1657C9.6883 137.017 7.53206 136.528 6.75682 135.562C5.93566 134.54 5.93624 132.135 6.75769 128.417C9.7787 114.81 17.1654 98.1587 34.9626 89.7514C34.4153 99.5713 39.7361 105.99 43.1182 110.064C43.6359 110.688 44.3905 111.067 45.2 111.11C46.0089 111.155 46.8002 110.857 47.3812 110.292L63.7632 94.3601L80.153 110.292C80.6969 110.821 81.4241 111.114 82.179 111.114C82.2311 111.114 82.2831 111.113 82.3357 111.11C83.1452 111.066 83.9001 110.687 84.4175 110.062C87.7949 105.985 93.1079 99.562 92.5655 89.7627C97.7288 92.212 102.291 95.4876 106.214 99.5682C103.871 100.475 101.568 101.054 99.4199 101.242C97.9445 101.371 96.8018 102.589 96.7672 104.07C96.5239 114.462 98.2561 121.908 102.942 130.623C102.982 130.697 104.566 133.535 107.033 137.018H58.4961C56.8907 137.018 55.5894 138.319 55.5894 139.925C55.5894 141.53 56.8907 142.831 58.4961 142.831H111.65C115.154 146.704 119.287 150.001 123.207 150.001C132.663 150.001 143.367 130.817 143.47 130.625C148.148 121.909 149.88 114.464 149.646 104.072V104.072ZM93.455 33.5691H77.4509C74.4273 25.6705 73.8552 19.1573 73.7526 9.59611C84.237 13.3043 91.8589 22.5554 93.455 33.5691ZM60.2887 5.81354H67.9178C67.9362 17.0651 68.2213 24.6854 71.2673 33.5691H56.9451C59.9859 24.6851 60.2707 17.0639 60.2887 5.81354V5.81354ZM54.4569 9.36677C54.361 19.0539 53.8052 25.6072 50.763 33.5694H34.0775C35.7356 22.4123 43.7559 12.9104 54.4569 9.36677ZM31.5571 39.3826H51.0028C51.174 39.5216 51.3397 39.5393 51.4786 39.3826H95.9769C98.0706 39.3826 99.774 41.0857 99.774 43.1798C99.774 45.2781 98.0709 46.9853 95.9769 46.9853H31.5571C29.459 46.9853 27.7518 45.2781 27.7518 43.1798C27.7518 41.086 29.4587 39.3826 31.5571 39.3826V39.3826ZM33.55 56.5707V52.7985H93.9837V56.5707C93.9837 67.653 83.2473 81.3593 71.0074 85.9029C65.6517 87.8931 61.8494 87.8914 56.4812 85.8965C44.2655 81.3343 33.55 67.6303 33.55 56.5707V56.5707ZM45.6136 103.901C42.6051 99.9734 39.7082 94.8167 41.1006 87.3315C42.3828 86.9176 43.7077 86.54 45.0814 86.206C48.0126 88.3565 51.174 90.1203 54.4514 91.3443C55.5062 91.7362 56.5213 92.0591 57.5142 92.3277L45.6136 103.901ZM81.9174 103.899L70.0096 92.3242C70.9897 92.0582 71.9914 91.7394 73.0314 91.3528C76.3251 90.1302 79.5019 88.3628 82.4467 86.2054C83.8036 86.5357 85.1306 86.9098 86.4252 87.3289C87.8208 94.8037 84.9251 99.9655 81.9174 103.899V103.899ZM138.347 127.877C134.909 134.292 126.859 144.186 123.207 144.186C119.555 144.186 111.504 134.292 108.065 127.873C104.223 120.73 102.647 114.774 102.562 106.664C105.697 106.067 108.962 104.897 112.172 103.263C112.285 103.214 112.395 103.156 112.503 103.091C116.251 101.143 119.917 98.5644 123.205 95.4998C129.396 101.276 136.933 105.349 143.849 106.664C143.758 114.775 142.182 120.733 138.347 127.877Z" fill="black"/>
<path d="M45.3382 137.017C43.7328 137.017 42.4314 138.319 42.4314 139.924C42.4314 141.529 43.7328 142.831 45.3382 142.831H45.3547C46.9601 142.831 48.2531 141.529 48.2531 139.924C48.2531 138.319 46.9436 137.017 45.3382 137.017Z" fill="black"/>
</g>
<defs>
<clipPath id="clip0">
<rect width="150" height="150" fill="white"/>
</clipPath>
</defs>
</svg>
